<?xml version="1.0" encoding="utf-8"?>
<!-- Generator: Adobe Illustrator 19.0.0, SVG Export Plug-In . SVG Version: 6.00 Build 0)  -->
<svg version="1.1" id="Layer_1" xmlns="http://www.w3.org/2000/svg" xmlns:xlink="http://www.w3.org/1999/xlink" x="0px" y="0px"
	 viewBox="-327 215.6 185.7 165.7" style="enable-background:new -327 215.6 185.7 165.7;" xml:space="preserve">
<style type="text/css">
	.st0{fill:#8BC53F;}
	.st1{fill:#A6A8AB;}
	.st2{fill:#58595B;}
	.st3{fill:none;stroke:#BBBDBF;stroke-width:0.25;stroke-miterlimit:10;}
	.st4{fill:#FFFFFF;}
</style>
<rect x="-217.1" y="264.3" class="st0" width="23.3" height="23.3"/>
<g>
	<g>
		<path class="st1" d="M-314.6,232c-0.2,0.2-0.6,0.4-1,0.5c-0.4,0.1-0.8,0.2-1.3,0.2c-0.9,0-1.7-0.3-2.3-0.9s-0.9-1.4-0.9-2.4
			c0-0.6,0.1-1.1,0.4-1.6c0.2-0.5,0.6-0.9,1.1-1.3c0.5-0.3,1-0.5,1.7-0.5c0.5,0,1,0.1,1.4,0.2c0.4,0.1,0.7,0.3,0.9,0.5l0.2,1.3
			l-0.8,0.1l-0.2-0.9c-0.2-0.1-0.4-0.2-0.7-0.3s-0.5-0.1-0.9-0.1c-0.7,0-1.2,0.2-1.6,0.7c-0.4,0.5-0.6,1.1-0.6,1.8
			c0,0.8,0.2,1.4,0.6,1.9s1,0.7,1.7,0.7c0.6,0,1-0.1,1.4-0.3l0.2-1l0.8,0.1L-314.6,232z"/>
		<path class="st1" d="M-306.3,232.6h-2.4v-0.8h0.8l-0.4-1.1h-2.6l-0.4,1.1h0.9v0.8h-2.4v-0.8h0.6l2.1-4.9h-1v-0.8h2l2.3,5.7h0.6
			V232.6z M-308.6,230l-1-2.6h-0.1l-1,2.6H-308.6z"/>
		<path class="st1" d="M-300.2,232.6h-4.8v-0.8h0.8v-4.9h-0.8v-0.8h2.7v0.8h-1v4.9h2.3l0.2-1.4l0.8,0.1L-300.2,232.6z"/>
		<path class="st1" d="M-293.6,232.6h-4.9v-0.8h0.8v-4.9h-0.8v-0.8h4.8l0.2,1.9l-0.8,0.1l-0.2-1.1h-2.3v2h3v0.8h-3v2.1h2.4l0.2-1.1
			l0.8,0.1L-293.6,232.6z"/>
		<path class="st1" d="M-284.9,226.9h-0.8v5.7h-0.5l-3.7-4.8h0v4h1v0.8h-2.6v-0.8h0.7v-4.9h-0.8v-0.8h1.5l3.6,4.7h0v-3.9h-1v-0.8
			h2.6V226.9z"/>
		<path class="st1" d="M-276.9,229.3c0,1-0.3,1.8-0.9,2.4c-0.6,0.6-1.4,0.9-2.4,0.9h-3v-0.8h0.8v-4.9h-0.8v-0.8h2.9
			c1.1,0,1.9,0.3,2.5,0.9C-277.2,227.6-276.9,228.4-276.9,229.3z M-277.8,229.3c0-0.8-0.2-1.4-0.6-1.8s-1-0.7-1.8-0.7h-1.2v4.9h1.2
			c0.8,0,1.4-0.2,1.8-0.6C-278.1,230.7-277.8,230.1-277.8,229.3z"/>
		<path class="st1" d="M-269.2,232.6h-2.4v-0.8h0.8l-0.4-1.1h-2.6l-0.4,1.1h0.9v0.8h-2.4v-0.8h0.6l2.1-4.9h-1v-0.8h2l2.3,5.7h0.6
			V232.6z M-271.5,230l-1-2.6h-0.1l-1,2.6H-271.5z M-270.9,225.2l-2,0.4l-0.1-0.4l2-0.8L-270.9,225.2z"/>
		<path class="st1" d="M-262.1,232.6h-1.4l-1.4-2.6h-1.2v1.9h0.8v0.8h-2.5v-0.8h0.8v-4.9h-0.8v-0.8h2.8c0.8,0,1.4,0.2,1.8,0.5
			c0.4,0.3,0.6,0.8,0.6,1.4c0,0.4-0.1,0.8-0.4,1.1s-0.6,0.5-1,0.7l1.1,2h0.8V232.6z M-263.6,228c0-0.4-0.1-0.7-0.3-0.9
			c-0.2-0.2-0.6-0.3-1.2-0.3h-1v2.3h1c0.5,0,0.9-0.1,1.2-0.3C-263.7,228.7-263.6,228.4-263.6,228z"/>
		<path class="st1" d="M-258.1,232.6h-2.5v-0.8h0.8v-4.9h-0.8v-0.8h2.5v0.8h-0.8v4.9h0.8V232.6z"/>
		<path class="st1" d="M-249.9,229.3c0,0.9-0.3,1.7-0.9,2.4c-0.6,0.7-1.4,1-2.4,1c-1,0-1.8-0.3-2.4-1c-0.6-0.7-0.9-1.4-0.9-2.4
			c0-0.9,0.3-1.7,0.9-2.4s1.4-1,2.4-1c1,0,1.8,0.3,2.4,1S-249.9,228.4-249.9,229.3z M-250.9,229.3c0-0.8-0.2-1.4-0.6-1.8
			c-0.4-0.5-1-0.7-1.7-0.7c-0.7,0-1.3,0.2-1.7,0.7c-0.4,0.5-0.6,1.1-0.6,1.8c0,0.7,0.2,1.3,0.6,1.8s1,0.8,1.7,0.8
			c0.7,0,1.3-0.2,1.7-0.7C-251.1,230.7-250.9,230.1-250.9,229.3z"/>
	</g>
</g>
<g>
	<g>
		<path class="st2" d="M-176,232.6h-2.6v-1.1h0.5l-0.2-0.7h-2.2l-0.3,0.7h0.6v1.1h-2.6v-1.1h0.6l1.9-4.2h-0.9v-1.1h2.2l2.3,5.4h0.6
			V232.6z M-178.7,229.8l-0.7-1.8h-0.1l-0.7,1.8H-178.7z"/>
		<path class="st2" d="M-169.1,230.6c0,0.5-0.2,1-0.5,1.4c-0.4,0.4-0.9,0.6-1.6,0.6h-3.4v-1.1h0.7v-4.2h-0.7v-1.1h3.4
			c0.6,0,1.1,0.1,1.4,0.4c0.4,0.3,0.5,0.6,0.5,1.1c0,0.3-0.1,0.6-0.3,0.9c-0.2,0.3-0.5,0.4-0.9,0.5v0c0.5,0.1,0.8,0.2,1.1,0.6
			C-169.2,229.8-169.1,230.2-169.1,230.6z M-170.7,227.9c0-0.3-0.1-0.5-0.3-0.6s-0.4-0.1-0.6-0.1h-1v1.5h0.9c0.4,0,0.6-0.1,0.8-0.2
			C-170.8,228.4-170.7,228.2-170.7,227.9z M-170.5,230.6c0-0.5-0.3-0.8-1-0.8h-1.1v1.7h1C-170.9,231.4-170.5,231.2-170.5,230.6z"/>
		<path class="st2" d="M-161.6,232.6h-1.7l-1.3-2.5h-0.9v1.3h0.7v1.1h-2.7v-1.1h0.7v-4.2h-0.7v-1.1h2.9c0.8,0,1.4,0.2,1.9,0.5
			s0.7,0.8,0.7,1.5c0,0.4-0.1,0.8-0.3,1.1c-0.2,0.3-0.5,0.5-0.9,0.7l0.9,1.6h0.8V232.6z M-163.4,228.1c0-0.3-0.1-0.6-0.3-0.7
			c-0.2-0.1-0.5-0.2-1-0.2h-0.7v1.8h0.6c0.5,0,0.9-0.1,1-0.2C-163.5,228.6-163.4,228.4-163.4,228.1z"/>
		<path class="st2" d="M-157.3,232.6h-2.7v-1.1h0.7v-4.2h-0.7v-1.1h2.7v1.1h-0.7v4.2h0.7V232.6z"/>
		<path class="st2" d="M-150.6,232.6h-4.9v-1.1h0.7v-4.2h-0.7v-1.1h3v1.1h-0.9v4.2h1.7l0.2-1.3l1.1,0.1L-150.6,232.6z"/>
	</g>
</g>
<line class="st3" x1="-326.6" y1="241" x2="-140.6" y2="241"/>
<line class="st3" x1="-326.6" y1="264.3" x2="-140.6" y2="264.3"/>
<line class="st3" x1="-326.6" y1="287.5" x2="-140.6" y2="287.5"/>
<line class="st3" x1="-326.6" y1="310.8" x2="-140.6" y2="310.8"/>
<line class="st3" x1="-326.6" y1="334.1" x2="-140.6" y2="334.1"/>
<line class="st3" x1="-326.6" y1="357.4" x2="-140.6" y2="357.4"/>
<g>
	<g>
		<path class="st1" d="M-308.4,272.7L-308.4,272.7l-1.3,0.7l-0.2-0.7l1.6-0.8h0.8v7.2h-0.9V272.7z"/>
		<path class="st1" d="M-310.6,300.3c0-0.9,0.5-1.5,1.4-1.9l0,0c-0.8-0.4-1.1-1-1.1-1.6c0-1.1,1-1.9,2.2-1.9c1.4,0,2.1,0.9,2.1,1.8
			c0,0.6-0.3,1.3-1.2,1.7v0c0.9,0.4,1.4,1,1.4,1.8c0,1.2-1.1,2.1-2.4,2.1C-309.7,302.2-310.6,301.3-310.6,300.3z M-306.7,300.3
			c0-0.9-0.6-1.3-1.6-1.6c-0.8,0.2-1.3,0.8-1.3,1.5c0,0.7,0.5,1.4,1.4,1.4C-307.3,301.5-306.7,301-306.7,300.3z M-309.4,296.7
			c0,0.7,0.5,1.1,1.4,1.3c0.6-0.2,1.1-0.6,1.1-1.3c0-0.6-0.3-1.2-1.2-1.2C-308.9,295.5-309.4,296.1-309.4,296.7z"/>
		<path class="st1" d="M-314,319.1L-314,319.1l-1.3,0.7l-0.2-0.7l1.6-0.8h0.8v7.2h-0.9V319.1z"/>
		<path class="st1" d="M-306.2,319h-2.7l-0.3,1.8c0.2,0,0.3,0,0.6,0c0.5,0,1.1,0.1,1.5,0.4c0.6,0.3,1,0.9,1,1.8
			c0,1.4-1.1,2.4-2.7,2.4c-0.8,0-1.4-0.2-1.8-0.4l0.2-0.7c0.3,0.2,0.9,0.4,1.5,0.4c0.9,0,1.7-0.6,1.7-1.6c0-0.9-0.6-1.6-2.1-1.6
			c-0.4,0-0.7,0-1,0.1l0.5-3.4h3.4V319z"/>
		<path class="st1" d="M-316.1,348.5v-0.6l0.8-0.7c1.8-1.7,2.7-2.7,2.7-3.7c0-0.7-0.4-1.4-1.4-1.4c-0.6,0-1.2,0.3-1.5,0.6l-0.3-0.7
			c0.5-0.4,1.2-0.7,2-0.7c1.5,0,2.2,1.1,2.2,2.1c0,1.3-1,2.4-2.5,3.8l-0.6,0.5v0h3.2v0.8H-316.1z"/>
		<path class="st1" d="M-310.5,348.5v-0.6l0.8-0.7c1.8-1.7,2.7-2.7,2.7-3.7c0-0.7-0.4-1.4-1.4-1.4c-0.6,0-1.2,0.3-1.5,0.6l-0.3-0.7
			c0.5-0.4,1.2-0.7,2-0.7c1.5,0,2.2,1.1,2.2,2.1c0,1.3-1,2.4-2.5,3.8l-0.6,0.5v0h3.2v0.8H-310.5z"/>
		<path class="st1" d="M-316.1,371.7v-0.6l0.8-0.7c1.8-1.7,2.7-2.7,2.7-3.7c0-0.7-0.4-1.4-1.4-1.4c-0.6,0-1.2,0.3-1.5,0.6l-0.3-0.7
			c0.5-0.4,1.2-0.7,2-0.7c1.5,0,2.2,1.1,2.2,2.1c0,1.3-1,2.4-2.5,3.8l-0.6,0.5v0h3.2v0.8H-316.1z"/>
		<path class="st1" d="M-309.9,371c0.2,0,0.5,0,0.8,0c0.6-0.1,1.1-0.3,1.5-0.7c0.5-0.4,0.8-1.1,0.9-1.9h0c-0.4,0.5-1,0.8-1.7,0.8
			c-1.3,0-2.1-1-2.1-2.2c0-1.4,1-2.5,2.4-2.5s2.4,1.2,2.4,3c0,1.6-0.5,2.7-1.2,3.4c-0.5,0.5-1.3,0.9-2.1,1c-0.4,0.1-0.7,0.1-0.9,0.1
			V371z M-309.6,366.9c0,0.9,0.5,1.5,1.4,1.5c0.6,0,1.2-0.3,1.4-0.7c0.1-0.1,0.1-0.2,0.1-0.4c0-1.2-0.5-2.2-1.5-2.2
			C-309,365.2-309.6,365.9-309.6,366.9z"/>
	</g>
</g>
<g>
	<g>
		<path class="st2" d="M-284.7,279v-0.6l0.8-0.7c1.8-1.7,2.7-2.7,2.7-3.7c0-0.7-0.4-1.4-1.4-1.4c-0.6,0-1.2,0.3-1.5,0.6l-0.3-0.7
			c0.5-0.4,1.2-0.7,2-0.7c1.5,0,2.2,1.1,2.2,2.1c0,1.3-1,2.4-2.5,3.8l-0.6,0.5v0h3.2v0.8H-284.7z"/>
		<path class="st2" d="M-284.1,301.5c0.2,0,0.5,0,0.8,0c0.6-0.1,1.1-0.3,1.5-0.7c0.5-0.4,0.8-1.1,0.9-1.9h0c-0.4,0.5-1,0.8-1.7,0.8
			c-1.3,0-2.1-1-2.1-2.2c0-1.4,1-2.5,2.4-2.5s2.4,1.2,2.4,3c0,1.6-0.5,2.7-1.2,3.4c-0.5,0.5-1.3,0.9-2.1,1c-0.4,0.1-0.7,0.1-0.9,0.1
			V301.5z M-283.8,297.4c0,0.9,0.5,1.5,1.4,1.5c0.6,0,1.2-0.3,1.4-0.7c0.1-0.1,0.1-0.2,0.1-0.4c0-1.2-0.5-2.2-1.5-2.2
			C-283.2,295.7-283.8,296.4-283.8,297.4z"/>
		<path class="st2" d="M-288.2,319.2L-288.2,319.2l-1.3,0.7l-0.2-0.7l1.6-0.8h0.8v7.2h-0.9V319.2z"/>
		<path class="st2" d="M-280.6,318.9c-0.2,0-0.5,0-0.7,0c-1.5,0.3-2.3,1.4-2.5,2.5h0c0.3-0.5,0.9-0.8,1.7-0.8c1.3,0,2.2,0.9,2.2,2.3
			c0,1.3-0.9,2.5-2.4,2.5c-1.5,0-2.5-1.2-2.5-3c0-1.4,0.5-2.5,1.2-3.2c0.6-0.6,1.4-0.9,2.3-1.1c0.3,0,0.5-0.1,0.7-0.1V318.9z
			 M-280.9,323.1c0-1-0.6-1.6-1.5-1.6c-0.6,0-1.1,0.4-1.4,0.9c-0.1,0.1-0.1,0.3-0.1,0.4c0,1.2,0.6,2,1.6,2
			C-281.4,324.8-280.9,324.1-280.9,323.1z"/>
		<path class="st2" d="M-290.3,348.6V348l0.8-0.7c1.8-1.7,2.7-2.7,2.7-3.7c0-0.7-0.4-1.4-1.4-1.4c-0.6,0-1.2,0.3-1.5,0.6l-0.3-0.7
			c0.5-0.4,1.2-0.7,2-0.7c1.5,0,2.2,1.1,2.2,2.1c0,1.3-1,2.4-2.5,3.8l-0.6,0.5v0h3.2v0.8H-290.3z"/>
		<path class="st2" d="M-284.5,347.5c0.3,0.2,0.9,0.5,1.6,0.5c1.2,0,1.6-0.8,1.6-1.4c0-1-0.9-1.4-1.8-1.4h-0.5v-0.7h0.5
			c0.7,0,1.6-0.4,1.6-1.2c0-0.6-0.4-1.1-1.3-1.1c-0.6,0-1.1,0.3-1.4,0.5l-0.3-0.7c0.4-0.3,1.1-0.6,1.9-0.6c1.4,0,2,0.8,2,1.7
			c0,0.7-0.4,1.4-1.3,1.7v0c0.9,0.2,1.6,0.8,1.6,1.8c0,1.1-0.9,2.1-2.6,2.1c-0.8,0-1.5-0.3-1.9-0.5L-284.5,347.5z"/>
		<path class="st2" d="M-290.1,370.7c0.3,0.2,0.9,0.5,1.6,0.5c1.2,0,1.6-0.8,1.6-1.4c0-1-0.9-1.4-1.8-1.4h-0.5v-0.7h0.5
			c0.7,0,1.6-0.4,1.6-1.2c0-0.6-0.4-1.1-1.3-1.1c-0.6,0-1.1,0.3-1.4,0.5l-0.3-0.7c0.4-0.3,1.1-0.6,1.9-0.6c1.4,0,2,0.8,2,1.7
			c0,0.7-0.4,1.4-1.3,1.7v0c0.9,0.2,1.6,0.8,1.6,1.8c0,1.1-0.9,2.1-2.6,2.1c-0.8,0-1.5-0.3-1.9-0.5L-290.1,370.7z"/>
		<path class="st2" d="M-279.9,368.1c0,2.4-0.9,3.8-2.5,3.8c-1.4,0-2.3-1.3-2.4-3.7c0-2.4,1-3.7,2.5-3.7
			C-280.8,364.5-279.9,365.9-279.9,368.1z M-283.8,368.3c0,1.9,0.6,2.9,1.5,2.9c1,0,1.5-1.2,1.5-3c0-1.8-0.5-2.9-1.5-2.9
			C-283.2,365.3-283.8,366.3-283.8,368.3z"/>
	</g>
</g>
<g>
	<g>
		<path class="st2" d="M-258.7,277.9c0.3,0.2,0.9,0.5,1.6,0.5c1.2,0,1.6-0.8,1.6-1.4c0-1-0.9-1.4-1.8-1.4h-0.5v-0.7h0.5
			c0.7,0,1.6-0.4,1.6-1.2c0-0.6-0.4-1.1-1.3-1.1c-0.6,0-1.1,0.3-1.4,0.5l-0.3-0.7c0.4-0.3,1.1-0.6,1.9-0.6c1.4,0,2,0.8,2,1.7
			c0,0.7-0.4,1.4-1.3,1.7v0c0.9,0.2,1.6,0.8,1.6,1.8c0,1.1-0.9,2.1-2.6,2.1c-0.8,0-1.5-0.3-1.9-0.5L-258.7,277.9z"/>
		<path class="st2" d="M-262.4,296L-262.4,296l-1.3,0.7l-0.2-0.7l1.6-0.8h0.8v7.2h-0.9V296z"/>
		<path class="st2" d="M-254.1,298.5c0,2.4-0.9,3.8-2.5,3.8c-1.4,0-2.3-1.3-2.4-3.7c0-2.4,1-3.7,2.5-3.7
			C-255,294.9-254.1,296.3-254.1,298.5z M-258,298.7c0,1.9,0.6,2.9,1.5,2.9c1,0,1.5-1.2,1.5-3c0-1.8-0.5-2.9-1.5-2.9
			C-257.4,295.7-258,296.7-258,298.7z"/>
		<path class="st2" d="M-262.4,319.2L-262.4,319.2l-1.3,0.7l-0.2-0.7l1.6-0.8h0.8v7.2h-0.9V319.2z"/>
		<path class="st2" d="M-254.2,318.2v0.6l-3.1,6.5h-1l3.1-6.3v0h-3.5v-0.8H-254.2z"/>
		<path class="st2" d="M-264.5,348.6V348l0.8-0.7c1.8-1.7,2.7-2.7,2.7-3.7c0-0.7-0.4-1.4-1.4-1.4c-0.6,0-1.2,0.3-1.5,0.6l-0.3-0.7
			c0.5-0.4,1.2-0.7,2-0.7c1.5,0,2.2,1.1,2.2,2.1c0,1.3-1,2.4-2.5,3.8l-0.6,0.5v0h3.2v0.8H-264.5z"/>
		<path class="st2" d="M-255.9,348.6v-1.9h-3.3V346l3.2-4.6h1v4.4h1v0.8h-1v1.9H-255.9z M-255.9,345.9v-2.4c0-0.4,0-0.7,0-1.1h0
			c-0.2,0.4-0.4,0.7-0.6,1.1l-1.7,2.4v0H-255.9z"/>
		<path class="st2" d="M-264.3,370.7c0.3,0.2,0.9,0.5,1.6,0.5c1.2,0,1.6-0.8,1.6-1.4c0-1-0.9-1.4-1.8-1.4h-0.5v-0.7h0.5
			c0.7,0,1.6-0.4,1.6-1.2c0-0.6-0.4-1.1-1.3-1.1c-0.6,0-1.1,0.3-1.4,0.5l-0.3-0.7c0.4-0.3,1.1-0.6,1.9-0.6c1.4,0,2,0.8,2,1.7
			c0,0.7-0.4,1.4-1.3,1.7v0c0.9,0.2,1.6,0.8,1.6,1.8c0,1.1-0.9,2.1-2.6,2.1c-0.8,0-1.5-0.3-1.9-0.5L-264.3,370.7z"/>
		<path class="st2" d="M-256.8,365.6L-256.8,365.6l-1.3,0.7l-0.2-0.7l1.6-0.8h0.8v7.2h-0.9V365.6z"/>
	</g>
</g>
<g>
	<g>
		<path class="st2" d="M-230.1,279v-1.9h-3.3v-0.6l3.2-4.6h1v4.4h1v0.8h-1v1.9H-230.1z M-230.1,276.3v-2.4c0-0.4,0-0.7,0-1.1h0
			c-0.2,0.4-0.4,0.7-0.6,1.1l-1.8,2.4v0H-230.1z"/>
		<path class="st2" d="M-236.6,296L-236.6,296l-1.3,0.7l-0.2-0.7l1.6-0.8h0.8v7.2h-0.9V296z"/>
		<path class="st2" d="M-231,296L-231,296l-1.3,0.7l-0.2-0.7l1.6-0.8h0.8v7.2h-0.9V296z"/>
		<path class="st2" d="M-236.6,319.2L-236.6,319.2l-1.3,0.7l-0.2-0.7l1.6-0.8h0.8v7.2h-0.9V319.2z"/>
		<path class="st2" d="M-233.2,323.6c0-0.9,0.5-1.5,1.4-1.9l0,0c-0.8-0.4-1.1-1-1.1-1.6c0-1.1,1-1.9,2.2-1.9c1.4,0,2.1,0.9,2.1,1.8
			c0,0.6-0.3,1.3-1.2,1.7v0c0.9,0.4,1.4,1,1.4,1.8c0,1.2-1.1,2.1-2.4,2.1C-232.3,325.5-233.2,324.6-233.2,323.6z M-229.3,323.5
			c0-0.9-0.6-1.3-1.6-1.6c-0.8,0.2-1.3,0.8-1.3,1.5c0,0.7,0.5,1.4,1.4,1.4C-229.9,324.8-229.3,324.3-229.3,323.5z M-232,320
			c0,0.7,0.5,1.1,1.4,1.3c0.6-0.2,1.1-0.6,1.1-1.3c0-0.6-0.3-1.2-1.2-1.2C-231.6,318.8-232,319.3-232,320z"/>
		<path class="st2" d="M-238.7,348.6V348l0.8-0.7c1.8-1.7,2.7-2.7,2.7-3.7c0-0.7-0.4-1.4-1.4-1.4c-0.6,0-1.2,0.3-1.5,0.6l-0.3-0.7
			c0.5-0.4,1.2-0.7,2-0.7c1.5,0,2.2,1.1,2.2,2.1c0,1.3-1,2.4-2.5,3.8l-0.6,0.5v0h3.2v0.8H-238.7z"/>
		<path class="st2" d="M-228.8,342.3h-2.7l-0.3,1.8c0.2,0,0.3,0,0.6,0c0.5,0,1.1,0.1,1.5,0.4c0.6,0.3,1,0.9,1,1.8
			c0,1.4-1.1,2.4-2.7,2.4c-0.8,0-1.4-0.2-1.8-0.4l0.2-0.7c0.3,0.2,0.9,0.4,1.5,0.4c0.9,0,1.7-0.6,1.7-1.6c0-0.9-0.6-1.6-2.1-1.6
			c-0.4,0-0.7,0-1,0.1l0.5-3.4h3.4V342.3z"/>
	</g>
</g>
<g>
	<g>
		<path class="st4" d="M-202.6,278.3c0,0.8-0.2,1.3-0.7,1.7s-1,0.6-1.8,0.6c-0.7,0-1.2-0.2-1.6-0.5s-0.6-0.7-0.7-1.2l0.8-0.3
			c0.1,0.3,0.2,0.6,0.5,0.8c0.2,0.2,0.5,0.3,1,0.3c0.5,0,0.9-0.1,1.1-0.4c0.2-0.3,0.3-0.6,0.3-1c0-0.6-0.2-1-0.6-1.2
			s-0.9-0.3-1.5-0.3c-0.1,0-0.3,0-0.5,0c-0.2,0-0.3,0-0.5,0l-0.3-0.3v-3.3h4.1l0.1,1.7l-0.8,0.1l-0.1-0.9h-2.3v1.9
			c0.1,0,0.2,0,0.3,0s0.2,0,0.3,0c0.5,0,1,0.1,1.5,0.2c0.5,0.1,0.8,0.3,1.1,0.7S-202.6,277.7-202.6,278.3z"/>
		<path class="st2" d="M-210.8,296L-210.8,296l-1.3,0.7l-0.2-0.7l1.6-0.8h0.8v7.2h-0.9V296z"/>
		<path class="st2" d="M-207.3,302.2v-0.6l0.8-0.7c1.8-1.7,2.7-2.7,2.7-3.7c0-0.7-0.4-1.4-1.4-1.4c-0.6,0-1.2,0.3-1.5,0.6l-0.3-0.7
			c0.5-0.4,1.2-0.7,2-0.7c1.5,0,2.2,1.1,2.2,2.1c0,1.3-1,2.4-2.5,3.8l-0.6,0.5v0h3.2v0.8H-207.3z"/>
		<path class="st2" d="M-210.8,319.2L-210.8,319.2l-1.3,0.7l-0.2-0.7l1.6-0.8h0.8v7.2h-0.9V319.2z"/>
		<path class="st2" d="M-206.7,324.7c0.2,0,0.5,0,0.8,0c0.6-0.1,1.1-0.3,1.5-0.7c0.5-0.4,0.8-1.1,0.9-1.9h0c-0.4,0.5-1,0.8-1.7,0.8
			c-1.3,0-2.1-1-2.1-2.2c0-1.4,1-2.5,2.4-2.5s2.4,1.2,2.4,3c0,1.6-0.5,2.7-1.2,3.4c-0.6,0.5-1.3,0.9-2.1,1c-0.4,0.1-0.7,0.1-0.9,0.1
			V324.7z M-206.4,320.6c0,0.9,0.5,1.5,1.4,1.5c0.7,0,1.2-0.3,1.4-0.7c0.1-0.1,0.1-0.2,0.1-0.4c0-1.2-0.5-2.2-1.5-2.2
			C-205.8,318.9-206.4,319.6-206.4,320.6z"/>
		<path class="st2" d="M-212.9,348.6V348l0.8-0.7c1.8-1.7,2.7-2.7,2.7-3.7c0-0.7-0.4-1.4-1.4-1.4c-0.6,0-1.2,0.3-1.5,0.6l-0.3-0.7
			c0.5-0.4,1.2-0.7,2-0.7c1.5,0,2.2,1.1,2.2,2.1c0,1.3-1,2.4-2.5,3.8l-0.6,0.5v0h3.2v0.8H-212.9z"/>
		<path class="st2" d="M-203.2,342.1c-0.2,0-0.4,0-0.7,0c-1.5,0.3-2.3,1.4-2.5,2.5h0c0.3-0.5,0.9-0.8,1.7-0.8c1.3,0,2.2,0.9,2.2,2.3
			c0,1.3-0.9,2.5-2.4,2.5c-1.5,0-2.5-1.2-2.5-3c0-1.4,0.5-2.5,1.2-3.2c0.6-0.6,1.4-0.9,2.3-1.1c0.3,0,0.5-0.1,0.7-0.1V342.1z
			 M-203.5,346.3c0-1-0.6-1.6-1.5-1.6c-0.6,0-1.1,0.4-1.4,0.9c-0.1,0.1-0.1,0.3-0.1,0.4c0,1.2,0.6,2,1.6,2
			C-204.1,348-203.5,347.3-203.5,346.3z"/>
	</g>
</g>
<g>
	<g>
		<path class="st2" d="M-177.4,272.5c-0.2,0-0.5,0-0.7,0c-1.5,0.3-2.3,1.4-2.5,2.5h0c0.3-0.5,0.9-0.8,1.7-0.8c1.3,0,2.2,0.9,2.2,2.3
			c0,1.3-0.9,2.5-2.4,2.5c-1.5,0-2.5-1.2-2.5-3c0-1.4,0.5-2.5,1.2-3.2c0.6-0.6,1.4-0.9,2.3-1.1c0.3,0,0.5-0.1,0.7-0.1V272.5z
			 M-177.7,276.7c0-1-0.6-1.6-1.5-1.6c-0.6,0-1.1,0.4-1.4,0.9c-0.1,0.1-0.1,0.3-0.1,0.4c0,1.2,0.6,2,1.6,2
			C-178.3,278.4-177.7,277.7-177.7,276.7z"/>
		<path class="st2" d="M-185,296L-185,296l-1.3,0.7l-0.2-0.7l1.6-0.8h0.8v7.2h-0.9V296z"/>
		<path class="st2" d="M-181.3,301.1c0.3,0.2,0.9,0.5,1.6,0.5c1.2,0,1.6-0.8,1.6-1.4c0-1-0.9-1.4-1.8-1.4h-0.5V298h0.5
			c0.7,0,1.6-0.4,1.6-1.2c0-0.6-0.4-1.1-1.3-1.1c-0.6,0-1.1,0.3-1.4,0.5l-0.3-0.7c0.4-0.3,1.1-0.6,1.9-0.6c1.4,0,2,0.8,2,1.7
			c0,0.7-0.4,1.4-1.3,1.7v0c0.9,0.2,1.6,0.8,1.6,1.8c0,1.1-0.9,2.1-2.6,2.1c-0.8,0-1.5-0.3-1.9-0.5L-181.3,301.1z"/>
		<path class="st2" d="M-187.1,325.4v-0.6l0.8-0.7c1.8-1.7,2.7-2.7,2.7-3.7c0-0.7-0.4-1.4-1.4-1.4c-0.6,0-1.2,0.3-1.5,0.6l-0.3-0.7
			c0.5-0.4,1.2-0.7,2-0.7c1.5,0,2.2,1.1,2.2,2.1c0,1.3-1,2.4-2.5,3.8l-0.6,0.5v0h3.2v0.8H-187.1z"/>
		<path class="st2" d="M-176.7,321.7c0,2.4-0.9,3.8-2.5,3.8c-1.4,0-2.3-1.3-2.4-3.7c0-2.4,1-3.7,2.5-3.7
			C-177.6,318.1-176.7,319.5-176.7,321.7z M-180.6,321.9c0,1.9,0.6,2.9,1.5,2.9c1,0,1.5-1.2,1.5-3c0-1.8-0.5-2.9-1.5-2.9
			C-180,318.9-180.6,319.9-180.6,321.9z"/>
		<path class="st2" d="M-187.1,348.6V348l0.8-0.7c1.8-1.7,2.7-2.7,2.7-3.7c0-0.7-0.4-1.4-1.4-1.4c-0.6,0-1.2,0.3-1.5,0.6l-0.3-0.7
			c0.5-0.4,1.2-0.7,2-0.7c1.5,0,2.2,1.1,2.2,2.1c0,1.3-1,2.4-2.5,3.8l-0.6,0.5v0h3.2v0.8H-187.1z"/>
		<path class="st2" d="M-176.9,341.4v0.6l-3.1,6.5h-1l3.1-6.3v0h-3.5v-0.8H-176.9z"/>
	</g>
</g>
<g>
	<g>
		<path class="st1" d="M-151.1,271.8v0.6l-3.1,6.5h-1l3.1-6.3v0h-3.5v-0.8H-151.1z"/>
		<path class="st1" d="M-159.2,296L-159.2,296l-1.3,0.7l-0.2-0.7l1.6-0.8h0.8v7.2h-0.9V296z"/>
		<path class="st1" d="M-152.7,302.2v-1.9h-3.3v-0.6l3.2-4.6h1v4.4h1v0.8h-1v1.9H-152.7z M-152.7,299.5v-2.4c0-0.4,0-0.7,0-1.1h0
			c-0.2,0.4-0.4,0.7-0.6,1.1l-1.7,2.4v0H-152.7z"/>
		<path class="st1" d="M-161.3,325.4v-0.6l0.8-0.7c1.8-1.7,2.7-2.7,2.7-3.7c0-0.7-0.4-1.4-1.4-1.4c-0.6,0-1.2,0.3-1.5,0.6l-0.3-0.7
			c0.5-0.4,1.2-0.7,2-0.7c1.5,0,2.2,1.1,2.2,2.1c0,1.3-1,2.4-2.5,3.8l-0.6,0.5v0h3.2v0.8H-161.3z"/>
		<path class="st1" d="M-153.6,319.2L-153.6,319.2l-1.3,0.7l-0.2-0.7l1.6-0.8h0.8v7.2h-0.9V319.2z"/>
		<path class="st1" d="M-161.3,348.6V348l0.8-0.7c1.8-1.7,2.7-2.7,2.7-3.7c0-0.7-0.4-1.4-1.4-1.4c-0.6,0-1.2,0.3-1.5,0.6l-0.3-0.7
			c0.5-0.4,1.2-0.7,2-0.7c1.5,0,2.2,1.1,2.2,2.1c0,1.3-1,2.4-2.5,3.8l-0.6,0.5v0h3.2v0.8H-161.3z"/>
		<path class="st1" d="M-155.8,346.8c0-0.9,0.5-1.5,1.4-1.9l0,0c-0.8-0.4-1.1-1-1.1-1.6c0-1.1,1-1.9,2.2-1.9c1.4,0,2.1,0.9,2.1,1.8
			c0,0.6-0.3,1.3-1.2,1.7v0c0.9,0.4,1.4,1,1.4,1.8c0,1.2-1.1,2.1-2.4,2.1C-154.9,348.7-155.8,347.8-155.8,346.8z M-151.9,346.7
			c0-0.9-0.6-1.3-1.6-1.6c-0.8,0.2-1.3,0.8-1.3,1.5c0,0.7,0.5,1.4,1.4,1.4C-152.5,348-151.9,347.5-151.9,346.7z M-154.6,343.2
			c0,0.7,0.5,1.1,1.4,1.3c0.6-0.2,1.1-0.6,1.1-1.3c0-0.6-0.3-1.2-1.2-1.2C-154.2,342-154.6,342.5-154.6,343.2z"/>
	</g>
</g>
<g>
	<g>
		<path class="st1" d="M-308.1,251.6c0,0.8-0.2,1.4-0.7,1.9c-0.5,0.5-1.1,0.7-1.9,0.7h-2.4v-0.8h0.6v-3.7h-0.6v-0.8h2.4
			c0.9,0,1.5,0.2,2,0.7C-308.4,250.3-308.1,250.9-308.1,251.6z M-309.1,251.6c0-1.2-0.6-1.8-1.7-1.8h-0.9v3.7h0.9
			C-309.7,253.5-309.1,252.9-309.1,251.6z"/>
	</g>
</g>
<g>
	<g>
		<path class="st2" d="M-280.1,252.7c0,0.5-0.2,0.9-0.5,1.2c-0.4,0.3-0.8,0.4-1.4,0.4c-0.4,0-0.7,0-1-0.1s-0.6-0.2-0.8-0.4l0.1-1.2
			l0.7,0.1l0,0.6c0.2,0.1,0.3,0.1,0.5,0.2c0.1,0,0.3,0,0.4,0c0.3,0,0.6,0,0.8-0.1s0.3-0.3,0.3-0.6c0-0.3-0.1-0.5-0.4-0.7
			s-0.5-0.2-0.8-0.3c-0.2,0-0.5-0.1-0.7-0.2c-0.3-0.1-0.5-0.2-0.6-0.4c-0.2-0.2-0.2-0.5-0.2-0.8c0-0.5,0.2-0.9,0.6-1.2
			s0.8-0.4,1.2-0.4c0.3,0,0.6,0,0.9,0.1c0.3,0.1,0.5,0.2,0.7,0.4l0,1.1l-0.7,0.1l-0.1-0.7c-0.1-0.1-0.3-0.1-0.4-0.2s-0.3,0-0.4,0
			c-0.3,0-0.5,0.1-0.6,0.2c-0.2,0.1-0.2,0.3-0.2,0.5c0,0.3,0.1,0.4,0.3,0.5c0.2,0.1,0.4,0.2,0.7,0.2c0.2,0,0.5,0.1,0.7,0.2
			s0.5,0.2,0.7,0.4C-280.2,252-280.1,252.3-280.1,252.7z"/>
	</g>
</g>
<g>
	<g>
		<path class="st2" d="M-252.8,250.7l-0.8,0.1l-0.2-1h-1v3.7h0.9v0.8h-2.6v-0.8h0.8v-3.7h-1l-0.2,1l-0.8-0.1l0.2-1.7h4.5
			L-252.8,250.7z"/>
	</g>
</g>
<g>
	<g>
		<path class="st2" d="M-228.9,251.6c0,0.7-0.2,1.3-0.7,1.8l0.6,0.6l-0.6,0.6l-0.6-0.6c-0.4,0.2-0.9,0.4-1.4,0.4
			c-0.8,0-1.5-0.3-1.9-0.8c-0.5-0.5-0.7-1.2-0.7-1.9c0-0.8,0.2-1.4,0.7-1.9c0.5-0.5,1.1-0.8,1.9-0.8c0.8,0,1.5,0.3,1.9,0.8
			C-229.1,250.3-228.9,250.9-228.9,251.6z M-229.8,251.7c0-0.6-0.1-1-0.4-1.4c-0.3-0.3-0.7-0.5-1.2-0.5c-0.6,0-1,0.2-1.3,0.5
			s-0.4,0.8-0.4,1.3c0,0.5,0.1,1,0.4,1.3c0.3,0.4,0.7,0.6,1.3,0.6c0.3,0,0.5-0.1,0.8-0.2l-0.8-0.9l0.6-0.6l0.9,0.9
			C-229.9,252.5-229.8,252.1-229.8,251.7z"/>
	</g>
</g>
<g>
	<g>
		<path class="st2" d="M-204.7,251.6c0,0.7-0.2,1.3-0.7,1.8l0.6,0.6l-0.6,0.6l-0.6-0.6c-0.4,0.2-0.9,0.4-1.4,0.4
			c-0.8,0-1.5-0.3-1.9-0.8s-0.7-1.2-0.7-1.9c0-0.8,0.2-1.4,0.7-1.9c0.5-0.5,1.1-0.8,1.9-0.8c0.8,0,1.5,0.3,1.9,0.8
			S-204.7,250.9-204.7,251.6z M-205.7,251.7c0-0.6-0.1-1-0.4-1.4s-0.7-0.5-1.2-0.5c-0.6,0-1,0.2-1.3,0.5c-0.3,0.4-0.4,0.8-0.4,1.3
			c0,0.5,0.1,1,0.4,1.3c0.3,0.4,0.7,0.6,1.3,0.6c0.3,0,0.5-0.1,0.8-0.2l-0.8-0.9l0.6-0.6l0.9,0.9
			C-205.8,252.5-205.7,252.1-205.7,251.7z"/>
	</g>
</g>
<g>
	<g>
		<path class="st2" d="M-178.1,252.7c0,0.5-0.2,0.9-0.5,1.2s-0.8,0.4-1.4,0.4c-0.4,0-0.7,0-1-0.1s-0.6-0.2-0.8-0.4l0.1-1.2l0.7,0.1
			l0,0.6c0.2,0.1,0.3,0.1,0.5,0.2c0.1,0,0.3,0,0.4,0c0.3,0,0.6,0,0.8-0.1s0.3-0.3,0.3-0.6c0-0.3-0.1-0.5-0.4-0.7
			c-0.2-0.1-0.5-0.2-0.8-0.3c-0.2,0-0.5-0.1-0.7-0.2c-0.3-0.1-0.5-0.2-0.6-0.4c-0.2-0.2-0.2-0.5-0.2-0.8c0-0.5,0.2-0.9,0.6-1.2
			c0.4-0.2,0.8-0.4,1.2-0.4c0.3,0,0.6,0,0.9,0.1c0.3,0.1,0.5,0.2,0.7,0.4l0,1.1l-0.7,0.1l-0.1-0.7c-0.1-0.1-0.3-0.1-0.4-0.2
			c-0.1,0-0.3,0-0.4,0c-0.2,0-0.5,0.1-0.6,0.2s-0.2,0.3-0.2,0.5c0,0.3,0.1,0.4,0.3,0.5c0.2,0.1,0.4,0.2,0.7,0.2
			c0.2,0,0.5,0.1,0.7,0.2s0.5,0.2,0.7,0.4C-178.2,252-178.1,252.3-178.1,252.7z"/>
	</g>
</g>
<g>
	<g>
		<path class="st1" d="M-153.5,252.7c0,0.5-0.2,0.9-0.5,1.2c-0.4,0.3-0.8,0.4-1.4,0.4c-0.4,0-0.7,0-1-0.1s-0.6-0.2-0.8-0.4l0.1-1.2
			l0.7,0.1l0,0.6c0.2,0.1,0.3,0.1,0.5,0.2c0.1,0,0.3,0,0.4,0c0.3,0,0.6,0,0.8-0.1s0.3-0.3,0.3-0.6c0-0.3-0.1-0.5-0.4-0.7
			s-0.5-0.2-0.8-0.3c-0.2,0-0.5-0.1-0.7-0.2s-0.5-0.2-0.6-0.4c-0.2-0.2-0.2-0.5-0.2-0.8c0-0.5,0.2-0.9,0.6-1.2s0.8-0.4,1.2-0.4
			c0.3,0,0.6,0,0.9,0.1c0.3,0.1,0.5,0.2,0.7,0.4l0,1.1l-0.7,0.1l-0.1-0.7c-0.1-0.1-0.3-0.1-0.4-0.2s-0.3,0-0.4,0
			c-0.3,0-0.5,0.1-0.6,0.2c-0.2,0.1-0.2,0.3-0.2,0.5c0,0.3,0.1,0.4,0.3,0.5c0.2,0.1,0.4,0.2,0.7,0.2c0.2,0,0.5,0.1,0.7,0.2
			s0.5,0.2,0.7,0.4C-153.7,252-153.5,252.3-153.5,252.7z"/>
	</g>
</g>
</svg>
