<?xml version="1.0" encoding="utf-8"?>
<!-- Generator: Adobe Illustrator 19.0.0, SVG Export Plug-In . SVG Version: 6.00 Build 0)  -->
<svg version="1.1" id="Layer_1" xmlns="http://www.w3.org/2000/svg" xmlns:xlink="http://www.w3.org/1999/xlink" x="0px" y="0px"
	 viewBox="0 0 217.7 73.7" style="enable-background:new 0 0 217.7 73.7;" xml:space="preserve">
<style type="text/css">
	.st0{fill:#FFFFFF;}
</style>
<g id="XMLID_2_">
	<g id="XMLID_17_">
		<path id="XMLID_207_" class="st0" d="M71.3,34.1c0,0.5-0.1,1-0.2,1.5c-0.2,0.4-0.4,0.8-0.7,1.1c-0.3,0.3-0.7,0.6-1.1,0.7
			c-0.4,0.2-0.9,0.3-1.5,0.3h-3.3v-1.2h0.8v-4.6h-0.8v-1.2h3.2c0.6,0,1.1,0.1,1.6,0.3c0.5,0.2,0.8,0.4,1.1,0.7
			c0.3,0.3,0.5,0.7,0.7,1.1C71.2,33.1,71.3,33.6,71.3,34.1z M69.7,34.2c0-0.8-0.2-1.4-0.5-1.7c-0.4-0.4-0.9-0.6-1.6-0.6h-1v4.6h1
			c0.7,0,1.2-0.2,1.6-0.5C69.5,35.6,69.7,35,69.7,34.2z"/>
		<path id="XMLID_205_" class="st0" d="M71.9,37.7v-1.2h0.8v-4.6h-0.8v-1.2h5.4l0.2,2.1l-1.2,0.1L76,31.9h-1.9v1.7h3v1.2h-3v1.7h2
			l0.2-0.9l1.2,0.1l-0.2,2.1H71.9z"/>
		<path id="XMLID_202_" class="st0" d="M84.2,32.9c0,0.4-0.1,0.8-0.2,1.1c-0.1,0.3-0.3,0.5-0.6,0.7c-0.2,0.2-0.5,0.3-0.8,0.4
			c-0.3,0.1-0.6,0.1-1,0.1h-1.1v1.1h1.1v1.2h-3.3v-1.2h0.8v-4.6h-0.8v-1.2h3.2c0.9,0,1.5,0.2,2,0.6C84,31.7,84.2,32.2,84.2,32.9z
			 M82.6,33c0-0.3-0.1-0.6-0.3-0.8c-0.2-0.2-0.5-0.3-1-0.3h-0.8v2.2h0.8c0.5,0,0.8-0.1,1-0.3C82.5,33.6,82.6,33.3,82.6,33z"/>
		<path id="XMLID_199_" class="st0" d="M88.3,37.7v-1.2h0.6l-0.3-0.7h-2.4l-0.3,0.7h0.7v1.2h-2.8v-1.2h0.6l2-4.6h-1v-1.2h2.4
			l2.5,5.8h0.7v1.2H88.3z M87.5,32.7L87.5,32.7l-0.9,2h1.6L87.5,32.7z"/>
		<path id="XMLID_196_" class="st0" d="M96.1,37.7L94.7,35h-1v1.5h0.8v1.2h-3v-1.2h0.8v-4.6h-0.8v-1.2h3.2c0.9,0,1.5,0.2,2,0.5
			c0.5,0.4,0.7,0.9,0.7,1.6c0,0.5-0.1,0.9-0.4,1.2c-0.2,0.3-0.6,0.6-1,0.7l1,1.8h0.8v1.2H96.1z M95.9,32.8c0-0.2,0-0.3-0.1-0.4
			c0-0.1-0.1-0.2-0.2-0.3c-0.1-0.1-0.3-0.1-0.4-0.2c-0.2,0-0.4,0-0.7,0h-0.7v2h0.7c0.5,0,0.9-0.1,1.1-0.3
			C95.8,33.4,95.9,33.2,95.9,32.8z"/>
		<path id="XMLID_194_" class="st0" d="M103.6,33.1l-0.2-1.3h-1.1v4.6h1.1v1.2h-3.7v-1.2h1.1v-4.6h-1.1l-0.2,1.3L98.2,33l0.2-2.4
			h6.2l0.2,2.4L103.6,33.1z"/>
		<path id="XMLID_191_" class="st0" d="M109,37.7v-1.2h0.6l-0.3-0.7h-2.4l-0.3,0.7h0.7v1.2h-2.8v-1.2h0.6l2-4.6h-1v-1.2h2.4l2.5,5.8
			h0.7v1.2H109z M108.2,32.7L108.2,32.7l-0.9,2h1.6L108.2,32.7z"/>
		<path id="XMLID_189_" class="st0" d="M120.4,31.9v4.6h0.8v1.2h-2.8v-1.2h0.6v-2.7h0l-1.9,3.4h-0.6l-2-3.5h0v2.8h0.7v1.2h-2.8v-1.2
			h0.8v-4.6h-0.9v-1.2h2.1l2.5,4.4h0l2.4-4.4h2.1v1.2H120.4z"/>
		<path id="XMLID_187_" class="st0" d="M122,37.7v-1.2h0.8v-4.6H122v-1.2h5.4l0.2,2.1l-1.2,0.1l-0.2-0.9h-1.9v1.7h3v1.2h-3v1.7h2
			l0.2-0.9l1.2,0.1l-0.2,2.1H122z"/>
		<path id="XMLID_185_" class="st0" d="M135.2,31.9v5.8l-0.8,0l-3.8-4.5h0v3.2h1v1.2h-3.1v-1.2h0.8v-4.6h-0.9v-1.2h1.9l3.6,4.2h0
			v-2.9h-1v-1.2h3.1v1.2H135.2z"/>
		<path id="XMLID_183_" class="st0" d="M141.8,33.1l-0.2-1.3h-1.1v4.6h1.1v1.2H138v-1.2h1.1v-4.6h-1.1l-0.2,1.3l-1.2-0.1l0.2-2.4
			h6.2l0.2,2.4L141.8,33.1z"/>
		<path id="XMLID_180_" class="st0" d="M150.8,34.2c0,0.5-0.1,1-0.2,1.4c-0.2,0.4-0.4,0.8-0.7,1.2c-0.3,0.3-0.7,0.6-1.1,0.8
			c-0.5,0.2-1,0.3-1.5,0.3c-0.6,0-1.1-0.1-1.5-0.3c-0.4-0.2-0.8-0.5-1.1-0.8c-0.3-0.3-0.5-0.7-0.7-1.2c-0.2-0.4-0.2-0.9-0.2-1.4
			c0-0.5,0.1-1,0.3-1.4c0.2-0.4,0.4-0.8,0.7-1.2c0.3-0.3,0.7-0.6,1.1-0.8c0.4-0.2,0.9-0.3,1.5-0.3c0.6,0,1.1,0.1,1.5,0.3
			c0.4,0.2,0.8,0.5,1.1,0.8c0.3,0.3,0.5,0.7,0.7,1.1C150.7,33.2,150.8,33.7,150.8,34.2z M149.2,34.2c0-0.8-0.2-1.3-0.5-1.8
			c-0.3-0.4-0.8-0.6-1.5-0.6c-0.3,0-0.6,0.1-0.9,0.2c-0.3,0.1-0.5,0.3-0.6,0.5c-0.2,0.2-0.3,0.5-0.4,0.7c-0.1,0.3-0.1,0.6-0.1,0.9
			c0,0.3,0,0.6,0.1,0.9c0.1,0.3,0.2,0.5,0.4,0.8s0.4,0.4,0.6,0.5c0.3,0.1,0.6,0.2,0.9,0.2c0.3,0,0.6-0.1,0.9-0.2
			c0.2-0.1,0.5-0.3,0.6-0.5c0.2-0.2,0.3-0.5,0.4-0.7C149.2,34.9,149.2,34.5,149.2,34.2z"/>
		<path id="XMLID_177_" class="st0" d="M157.4,37.7v-1.2h0.6l-0.3-0.7h-2.4l-0.3,0.7h0.7v1.2h-2.8v-1.2h0.6l2-4.6h-1v-1.2h2.4
			l2.5,5.8h0.7v1.2H157.4z M156.6,32.7L156.6,32.7l-0.9,2h1.6L156.6,32.7z"/>
		<path id="XMLID_175_" class="st0" d="M165.9,37.3c-0.2,0.1-0.4,0.2-0.7,0.3c-0.2,0.1-0.5,0.1-0.7,0.2c-0.3,0-0.5,0.1-0.8,0.1
			c-0.5,0-1-0.1-1.4-0.3c-0.4-0.2-0.8-0.4-1.1-0.7c-0.3-0.3-0.6-0.7-0.7-1.1c-0.2-0.4-0.3-0.9-0.3-1.4c0-0.4,0.1-0.8,0.2-1.3
			c0.1-0.4,0.3-0.8,0.6-1.2c0.3-0.4,0.7-0.7,1.1-0.9c0.5-0.2,1-0.4,1.7-0.4c0.6,0,1.1,0.1,1.5,0.3c0.4,0.2,0.8,0.4,1,0.6l0.2,1.6
			l-1.2,0.1l-0.2-0.9c-0.2-0.1-0.4-0.2-0.7-0.3c-0.3-0.1-0.5-0.1-0.8-0.1c-0.6,0-1.1,0.2-1.5,0.6c-0.4,0.4-0.5,1-0.5,1.8
			c0,0.4,0.1,0.8,0.2,1.1c0.1,0.3,0.2,0.5,0.4,0.7c0.2,0.2,0.4,0.3,0.7,0.4c0.3,0.1,0.5,0.1,0.8,0.1c0.3,0,0.5,0,0.8-0.1
			c0.2-0.1,0.4-0.1,0.6-0.2l0.2-1.1l1.2,0.1l-0.1,1.7C166.2,37.1,166.1,37.2,165.9,37.3z"/>
		<path id="XMLID_172_" class="st0" d="M171.5,37.7v-1.2h0.6l-0.3-0.7h-2.4l-0.3,0.7h0.7v1.2H167v-1.2h0.6l2-4.6h-1v-1.2h2.4
			l2.5,5.8h0.7v1.2H171.5z M170.7,32.7L170.7,32.7l-0.9,2h1.6L170.7,32.7z"/>
		<path id="XMLID_169_" class="st0" d="M181.6,34.1c0,0.5-0.1,1-0.2,1.5c-0.2,0.4-0.4,0.8-0.7,1.1c-0.3,0.3-0.7,0.6-1.1,0.7
			c-0.4,0.2-0.9,0.3-1.5,0.3h-3.3v-1.2h0.8v-4.6h-0.8v-1.2h3.2c0.6,0,1.1,0.1,1.6,0.3c0.5,0.2,0.8,0.4,1.1,0.7
			c0.3,0.3,0.5,0.7,0.7,1.1C181.6,33.1,181.6,33.6,181.6,34.1z M180.1,34.2c0-0.8-0.2-1.4-0.5-1.7c-0.4-0.4-0.9-0.6-1.6-0.6h-1v4.6
			h1c0.7,0,1.2-0.2,1.6-0.5C179.9,35.6,180.1,35,180.1,34.2z"/>
		<path id="XMLID_166_" class="st0" d="M182.2,37.7v-1.2h0.8v-4.6h-0.8v-1.2h5.4l0.2,2.1l-1.2,0.1l-0.2-0.9h-1.9v1.7h3v1.2h-3v1.7h2
			l0.2-0.9l1.2,0.1l-0.2,2.1H182.2z M186.8,30.3l-1.5-0.7l-1.3,0.7l-0.3-0.6l1.5-1.1h0.5l1.5,1.2L186.8,30.3z"/>
		<path id="XMLID_164_" class="st0" d="M196.8,31.9v4.6h0.8v1.2h-2.8v-1.2h0.6v-2.7h0l-1.9,3.4h-0.6l-2-3.5h0v2.8h0.7v1.2h-2.8v-1.2
			h0.8v-4.6h-0.9v-1.2h2.1l2.5,4.4h0l2.4-4.4h2.1v1.2H196.8z"/>
		<path id="XMLID_162_" class="st0" d="M198.4,37.7v-1.2h0.8v-4.6h-0.8v-1.2h3v1.2h-0.8v4.6h0.8v1.2H198.4z"/>
		<path id="XMLID_160_" class="st0" d="M207.6,37.3c-0.2,0.1-0.4,0.2-0.6,0.3c-0.2,0.1-0.5,0.1-0.7,0.2c-0.3,0-0.5,0.1-0.8,0.1
			c-0.5,0-1-0.1-1.4-0.3c-0.4-0.2-0.8-0.4-1.1-0.7c-0.3-0.3-0.6-0.7-0.7-1.1c-0.2-0.4-0.3-0.9-0.3-1.4c0-0.4,0.1-0.8,0.2-1.3
			c0.1-0.4,0.3-0.8,0.6-1.2c0.3-0.4,0.7-0.7,1.1-0.9c0.5-0.2,1-0.4,1.7-0.4c0.6,0,1.1,0.1,1.6,0.3c0.4,0.2,0.8,0.4,1,0.6l0.2,1.6
			l-1.2,0.1l-0.2-0.9c-0.2-0.1-0.4-0.2-0.7-0.3c-0.3-0.1-0.5-0.1-0.8-0.1c-0.6,0-1.1,0.2-1.5,0.6c-0.4,0.4-0.5,1-0.5,1.8
			c0,0.4,0,0.8,0.2,1.1c0.1,0.3,0.2,0.5,0.4,0.7c0.2,0.2,0.4,0.3,0.7,0.4c0.3,0.1,0.5,0.1,0.8,0.1c0.3,0,0.5,0,0.8-0.1
			c0.2-0.1,0.4-0.1,0.6-0.2l0.2-1.1l1.2,0.1l-0.1,1.7C208,37.1,207.8,37.2,207.6,37.3z"/>
		<path id="XMLID_157_" class="st0" d="M216.1,34.2c0,0.5-0.1,1-0.2,1.4c-0.2,0.4-0.4,0.8-0.7,1.2c-0.3,0.3-0.7,0.6-1.1,0.8
			c-0.5,0.2-1,0.3-1.5,0.3c-0.6,0-1.1-0.1-1.5-0.3c-0.4-0.2-0.8-0.5-1.1-0.8c-0.3-0.3-0.5-0.7-0.7-1.2c-0.2-0.4-0.2-0.9-0.2-1.4
			c0-0.5,0.1-1,0.3-1.4c0.2-0.4,0.4-0.8,0.7-1.2c0.3-0.3,0.7-0.6,1.1-0.8c0.4-0.2,0.9-0.3,1.5-0.3c0.6,0,1.1,0.1,1.5,0.3
			c0.4,0.2,0.8,0.5,1.1,0.8c0.3,0.3,0.5,0.7,0.7,1.1C216,33.2,216.1,33.7,216.1,34.2z M214.5,34.2c0-0.8-0.2-1.3-0.5-1.8
			c-0.3-0.4-0.9-0.6-1.5-0.6c-0.3,0-0.6,0.1-0.9,0.2c-0.3,0.1-0.5,0.3-0.6,0.5c-0.2,0.2-0.3,0.5-0.4,0.7c-0.1,0.3-0.1,0.6-0.1,0.9
			c0,0.3,0,0.6,0.1,0.9c0.1,0.3,0.2,0.5,0.4,0.8c0.2,0.2,0.4,0.4,0.6,0.5c0.3,0.1,0.6,0.2,0.9,0.2c0.3,0,0.6-0.1,0.9-0.2
			c0.2-0.1,0.5-0.3,0.6-0.5c0.2-0.2,0.3-0.5,0.4-0.7C214.5,34.9,214.5,34.5,214.5,34.2z"/>
		<path id="XMLID_154_" class="st0" d="M71.3,45.4c0,0.5-0.1,1-0.2,1.5c-0.2,0.4-0.4,0.8-0.7,1.1c-0.3,0.3-0.7,0.6-1.1,0.7
			c-0.4,0.2-0.9,0.3-1.5,0.3h-3.3v-1.2h0.8v-4.6h-0.8v-1.2h3.2c0.6,0,1.1,0.1,1.6,0.3c0.5,0.2,0.8,0.4,1.1,0.7
			c0.3,0.3,0.5,0.7,0.7,1.1C71.2,44.4,71.3,44.9,71.3,45.4z M69.7,45.4c0-0.8-0.2-1.4-0.5-1.7c-0.4-0.4-0.9-0.6-1.6-0.6h-1v4.6h1
			c0.7,0,1.2-0.2,1.6-0.5C69.5,46.8,69.7,46.2,69.7,45.4z"/>
		<path id="XMLID_152_" class="st0" d="M71.9,48.9v-1.2h0.8v-4.6h-0.8v-1.2h5.4l0.2,2.1l-1.2,0.1L76,43.1h-1.9v1.7h3V46h-3v1.7h2
			l0.2-0.9l1.2,0.1l-0.2,2.1H71.9z"/>
		<path id="XMLID_149_" class="st0" d="M87.2,45.4c0,0.5-0.1,1-0.2,1.5c-0.2,0.4-0.4,0.8-0.7,1.1c-0.3,0.3-0.7,0.6-1.1,0.7
			c-0.4,0.2-0.9,0.3-1.5,0.3h-3.3v-1.2h0.8v-4.6h-0.8v-1.2h3.2c0.6,0,1.1,0.1,1.6,0.3c0.5,0.2,0.8,0.4,1.1,0.7
			c0.3,0.3,0.5,0.7,0.7,1.1C87.1,44.4,87.2,44.9,87.2,45.4z M85.6,45.4c0-0.8-0.2-1.4-0.5-1.7c-0.4-0.4-0.9-0.6-1.6-0.6h-1v4.6h1
			c0.7,0,1.2-0.2,1.6-0.5C85.5,46.8,85.6,46.2,85.6,45.4z"/>
		<path id="XMLID_147_" class="st0" d="M87.8,48.9v-1.2h0.8v-4.6h-0.8v-1.2h5.4l0.2,2.1l-1.2,0.1l-0.2-0.9H90v1.7h3V46h-3v1.7h2
			l0.2-0.9l1.2,0.1l-0.2,2.1H87.8z"/>
		<path id="XMLID_145_" class="st0" d="M99.5,46.8c0,0.7-0.2,1.3-0.7,1.7c-0.5,0.4-1.2,0.6-2,0.6c-0.2,0-0.5,0-0.7,0
			c-0.2,0-0.5-0.1-0.7-0.1c-0.2-0.1-0.4-0.1-0.6-0.2c-0.2-0.1-0.4-0.2-0.5-0.3l0.2-1.7l1.2,0.1l0,0.9c0.2,0.1,0.5,0.2,0.6,0.2
			c0.2,0,0.3,0,0.4,0c0.2,0,0.4,0,0.5,0c0.2,0,0.3-0.1,0.4-0.1c0.1-0.1,0.2-0.1,0.3-0.2c0.1-0.1,0.1-0.3,0.1-0.4
			c0-0.2,0-0.4-0.1-0.5c-0.1-0.1-0.2-0.2-0.3-0.3C97.4,46.1,97.2,46,97,46c-0.2,0-0.4-0.1-0.6-0.1c-0.3,0-0.5-0.1-0.8-0.2
			c-0.3-0.1-0.5-0.2-0.7-0.3c-0.2-0.1-0.4-0.3-0.5-0.6c-0.1-0.2-0.2-0.5-0.2-0.9c0-0.4,0.1-0.7,0.2-1c0.1-0.3,0.3-0.5,0.6-0.7
			c0.2-0.2,0.5-0.3,0.8-0.4c0.3-0.1,0.6-0.1,0.9-0.1c0.5,0,0.9,0.1,1.3,0.2c0.4,0.1,0.7,0.3,1,0.6l0.1,1.5L98,44.2l-0.1-0.8
			c-0.2-0.1-0.4-0.2-0.6-0.2c-0.2,0-0.4-0.1-0.5-0.1c-0.3,0-0.5,0.1-0.7,0.2c-0.2,0.1-0.3,0.3-0.3,0.5c0,0.2,0,0.3,0.1,0.4
			c0.1,0.1,0.2,0.2,0.3,0.2c0.1,0.1,0.2,0.1,0.4,0.2c0.1,0,0.3,0.1,0.5,0.1c0.1,0,0.3,0.1,0.5,0.1c0.2,0,0.4,0.1,0.5,0.1
			c0.2,0.1,0.4,0.1,0.5,0.2c0.2,0.1,0.3,0.2,0.5,0.4c0.1,0.1,0.2,0.3,0.3,0.5C99.4,46.2,99.5,46.5,99.5,46.8z"/>
		<path id="XMLID_143_" class="st0" d="M100.3,48.9v-1.2h0.8v-4.6h-0.8v-1.2h5.4l0.2,2.1l-1.2,0.1l-0.2-0.9h-1.9v1.7h3V46h-3v1.7h2
			l0.2-0.9l1.2,0.1l-0.2,2.1H100.3z"/>
		<path id="XMLID_141_" class="st0" d="M113.4,43.1v5.8l-0.8,0l-3.8-4.5h0v3.2h1v1.2h-3.1v-1.2h0.8v-4.6h-0.9v-1.2h1.9l3.6,4.2h0
			v-2.9h-1v-1.2h3.1v1.2H113.4z"/>
		<path id="XMLID_139_" class="st0" d="M119.4,48.9v-1.2h0.8V46h-3v1.7h0.8v1.2h-3v-1.2h0.8v-4.6h-0.8v-1.2h3v1.2h-0.8v1.6h3v-1.6
			h-0.8v-1.2h3v1.2h-0.8v4.6h0.8v1.2H119.4z"/>
		<path id="XMLID_136_" class="st0" d="M130.1,45.4c0,0.5-0.1,1-0.2,1.4c-0.2,0.4-0.4,0.8-0.7,1.2c-0.3,0.3-0.7,0.6-1.1,0.8
			c-0.5,0.2-1,0.3-1.5,0.3c-0.6,0-1.1-0.1-1.5-0.3c-0.4-0.2-0.8-0.5-1.1-0.8c-0.3-0.3-0.5-0.7-0.7-1.2c-0.2-0.4-0.2-0.9-0.2-1.4
			c0-0.5,0.1-1,0.3-1.4c0.2-0.4,0.4-0.8,0.7-1.2c0.3-0.3,0.7-0.6,1.1-0.8c0.4-0.2,0.9-0.3,1.5-0.3c0.6,0,1.1,0.1,1.5,0.3
			c0.4,0.2,0.8,0.5,1.1,0.8c0.3,0.3,0.5,0.7,0.7,1.1C130,44.4,130.1,44.9,130.1,45.4z M128.5,45.4c0-0.8-0.2-1.3-0.5-1.8
			c-0.3-0.4-0.8-0.6-1.5-0.6c-0.3,0-0.6,0.1-0.9,0.2c-0.3,0.1-0.5,0.3-0.6,0.5c-0.2,0.2-0.3,0.5-0.4,0.7c-0.1,0.3-0.1,0.6-0.1,0.9
			c0,0.3,0,0.6,0.1,0.9c0.1,0.3,0.2,0.5,0.4,0.8c0.2,0.2,0.4,0.4,0.6,0.5c0.3,0.1,0.6,0.2,0.9,0.2c0.3,0,0.6-0.1,0.9-0.2
			c0.2-0.1,0.5-0.3,0.6-0.5c0.2-0.2,0.3-0.5,0.4-0.7C128.5,46.1,128.5,45.8,128.5,45.4z"/>
		<path id="XMLID_134_" class="st0" d="M132.8,48.9v-1.2h0.8v-4.6h-0.8v-1.2h3v1.2H135v4.6h0.8v1.2H132.8z"/>
		<path id="XMLID_132_" class="st0" d="M143.4,43.1v5.8l-0.8,0l-3.8-4.5h0v3.2h1v1.2h-3.1v-1.2h0.8v-4.6h-0.9v-1.2h1.9l3.6,4.2h0
			v-2.9h-1v-1.2h3.1v1.2H143.4z"/>
		<path id="XMLID_129_" class="st0" d="M151.7,45.4c0,0.5-0.1,1-0.2,1.5c-0.2,0.4-0.4,0.8-0.7,1.1c-0.3,0.3-0.7,0.6-1.1,0.7
			c-0.4,0.2-0.9,0.3-1.5,0.3h-3.3v-1.2h0.8v-4.6h-0.8v-1.2h3.2c0.6,0,1.1,0.1,1.6,0.3c0.5,0.2,0.8,0.4,1.1,0.7
			c0.3,0.3,0.5,0.7,0.7,1.1C151.7,44.4,151.7,44.9,151.7,45.4z M150.2,45.4c0-0.8-0.2-1.4-0.5-1.7c-0.4-0.4-0.9-0.6-1.6-0.6h-1v4.6
			h1c0.7,0,1.2-0.2,1.6-0.5C150,46.8,150.2,46.2,150.2,45.4z"/>
		<path id="XMLID_127_" class="st0" d="M158.8,43.1V46c0,0.4-0.1,0.7-0.2,1.1c-0.1,0.4-0.3,0.7-0.5,1c-0.2,0.3-0.5,0.5-0.9,0.7
			c-0.4,0.2-0.9,0.3-1.4,0.3c-0.5,0-1-0.1-1.4-0.2c-0.4-0.2-0.7-0.4-0.9-0.6c-0.2-0.3-0.4-0.6-0.5-0.9c-0.1-0.3-0.2-0.7-0.2-1.1v-3
			h-0.6v-1.2h2.9v1.2h-0.8v3c0,0.2,0,0.5,0.1,0.7c0.1,0.2,0.1,0.4,0.3,0.5c0.1,0.1,0.3,0.3,0.5,0.3c0.2,0.1,0.4,0.1,0.7,0.1
			c0.6,0,1-0.2,1.2-0.5c0.2-0.3,0.4-0.7,0.4-1.3v-2.9h-0.8v-1.2h2.8v1.2H158.8z"/>
		<path id="XMLID_125_" class="st0" d="M165.4,46.8c0,0.7-0.2,1.3-0.7,1.7c-0.5,0.4-1.2,0.6-2,0.6c-0.2,0-0.5,0-0.7,0
			c-0.2,0-0.5-0.1-0.7-0.1c-0.2-0.1-0.4-0.1-0.6-0.2c-0.2-0.1-0.4-0.2-0.5-0.3l0.2-1.7l1.2,0.1l0,0.9c0.2,0.1,0.5,0.2,0.6,0.2
			c0.2,0,0.3,0,0.4,0c0.2,0,0.4,0,0.5,0c0.2,0,0.3-0.1,0.4-0.1c0.1-0.1,0.2-0.1,0.3-0.2c0.1-0.1,0.1-0.3,0.1-0.4
			c0-0.2,0-0.4-0.1-0.5c-0.1-0.1-0.2-0.2-0.3-0.3c-0.1-0.1-0.3-0.1-0.5-0.2c-0.2,0-0.4-0.1-0.6-0.1c-0.3,0-0.5-0.1-0.8-0.2
			c-0.3-0.1-0.5-0.2-0.7-0.3c-0.2-0.1-0.4-0.3-0.5-0.6c-0.1-0.2-0.2-0.5-0.2-0.9c0-0.4,0.1-0.7,0.2-1c0.1-0.3,0.3-0.5,0.6-0.7
			c0.2-0.2,0.5-0.3,0.8-0.4c0.3-0.1,0.6-0.1,0.9-0.1c0.5,0,0.9,0.1,1.3,0.2c0.4,0.1,0.7,0.3,1,0.6l0.1,1.5l-1.2,0.1l-0.1-0.8
			c-0.2-0.1-0.4-0.2-0.6-0.2c-0.2,0-0.4-0.1-0.5-0.1c-0.3,0-0.5,0.1-0.7,0.2c-0.2,0.1-0.3,0.3-0.3,0.5c0,0.2,0,0.3,0.1,0.4
			c0.1,0.1,0.2,0.2,0.3,0.2c0.1,0.1,0.2,0.1,0.4,0.2c0.1,0,0.3,0.1,0.5,0.1c0.1,0,0.3,0.1,0.5,0.1c0.2,0,0.4,0.1,0.5,0.1
			c0.2,0.1,0.4,0.1,0.5,0.2c0.2,0.1,0.3,0.2,0.5,0.4c0.1,0.1,0.2,0.3,0.3,0.5C165.4,46.2,165.4,46.5,165.4,46.8z"/>
		<path id="XMLID_123_" class="st0" d="M171.3,44.4l-0.2-1.3H170v4.6h1.1v1.2h-3.7v-1.2h1.1v-4.6h-1.1l-0.2,1.3l-1.2-0.1l0.2-2.4
			h6.2l0.2,2.4L171.3,44.4z"/>
		<path id="XMLID_120_" class="st0" d="M177.8,48.9l-1.4-2.7h-1v1.5h0.8v1.2h-3v-1.2h0.8v-4.6h-0.8v-1.2h3.2c0.9,0,1.5,0.2,2,0.5
			c0.5,0.4,0.7,0.9,0.7,1.6c0,0.5-0.1,0.9-0.4,1.2c-0.2,0.3-0.6,0.6-1,0.7l1,1.8h0.8v1.2H177.8z M177.6,44.1c0-0.2,0-0.3-0.1-0.4
			c0-0.1-0.1-0.2-0.2-0.3c-0.1-0.1-0.3-0.1-0.4-0.2c-0.2,0-0.4,0-0.7,0h-0.7v2h0.7c0.5,0,0.9-0.1,1.1-0.3
			C177.5,44.7,177.6,44.4,177.6,44.1z"/>
		<path id="XMLID_118_" class="st0" d="M180.2,48.9v-1.2h0.8v-4.6h-0.8v-1.2h3v1.2h-0.8v4.6h0.8v1.2H180.2z"/>
		<path id="XMLID_115_" class="st0" d="M188.2,48.9v-1.2h0.6l-0.3-0.7h-2.4l-0.3,0.7h0.7v1.2h-2.8v-1.2h0.6l2-4.6h-1v-1.2h2.4
			l2.5,5.8h0.7v1.2H188.2z M187.4,44L187.4,44l-0.9,2h1.6L187.4,44z"/>
		<path id="XMLID_113_" class="st0" d="M191.4,48.9v-1.2h0.8v-4.6h-0.8v-1.2h3.2v1.2h-1v4.6h1.8l0.2-1.4l1.2,0.1l-0.2,2.5H191.4z"/>
		<path id="XMLID_111_" class="st0" d="M70.7,53.8v3.5c0,0.4,0,0.7-0.1,1.1c-0.1,0.4-0.2,0.7-0.5,1c-0.2,0.3-0.5,0.5-0.9,0.7
			c-0.4,0.2-0.8,0.3-1.4,0.3c-0.5,0-1-0.1-1.3-0.2s-0.6-0.4-0.9-0.6s-0.4-0.6-0.5-0.9c-0.1-0.3-0.1-0.7-0.1-1.1v-3.6h-0.7v-0.7h2.5
			v0.7h-1v3.6c0,0.7,0.2,1.2,0.5,1.6c0.3,0.4,0.8,0.6,1.5,0.6c0.7,0,1.2-0.2,1.5-0.6c0.3-0.4,0.5-1,0.5-1.7v-3.5h-1v-0.7h2.4v0.7
			H70.7z"/>
		<path id="XMLID_109_" class="st0" d="M78.5,53.8v6.4H78l-4.1-5.6h0v4.9H75v0.7h-2.7v-0.7h0.8v-5.7h-0.9v-0.7h1.5l4,5.4h0v-4.7
			h-1.1v-0.7h2.7v0.7H78.5z"/>
		<path id="XMLID_107_" class="st0" d="M80.2,60.2v-0.7h0.9v-5.7h-0.9v-0.7h2.6v0.7h-0.9v5.7h0.9v0.7H80.2z"/>
		<path id="XMLID_105_" class="st0" d="M89.6,53.8l-2.5,6.4h-0.6l-2.5-6.4h-0.7v-0.7h2.5v0.7h-1l2,5.2h0.1l2-5.2h-1v-0.7h2.5v0.7
			H89.6z"/>
		<path id="XMLID_103_" class="st0" d="M90.7,60.2v-0.7h0.9v-5.7h-0.9v-0.7h5.2l0.2,2l-0.7,0.1l-0.2-1.4h-2.8v2.4h3.3v0.7h-3.3v2.5
			h2.9l0.2-1.4l0.7,0.1l-0.2,2H90.7z"/>
		<path id="XMLID_100_" class="st0" d="M101.8,60.2l-1.5-2.9h-1.5v2.3h0.9v0.7h-2.6v-0.7H98v-5.7h-0.9v-0.7h3c0.4,0,0.8,0,1.1,0.2
			c0.3,0.1,0.6,0.2,0.8,0.4c0.2,0.2,0.3,0.4,0.4,0.6c0.1,0.2,0.1,0.5,0.1,0.8c0,0.5-0.1,0.9-0.4,1.2c-0.3,0.4-0.6,0.6-1.1,0.7
			l1.3,2.4h0.9v0.7H101.8z M101.8,55.2c0-0.5-0.1-0.8-0.4-1c-0.3-0.2-0.7-0.3-1.3-0.3h-1.3v2.7h1.3c0.6,0,1-0.1,1.3-0.4
			C101.6,55.9,101.8,55.6,101.8,55.2z"/>
		<path id="XMLID_98_" class="st0" d="M108.7,58.2c0,0.3-0.1,0.6-0.2,0.9c-0.1,0.3-0.3,0.5-0.5,0.7c-0.2,0.2-0.5,0.3-0.8,0.4
			c-0.3,0.1-0.6,0.1-1,0.1c-0.5,0-0.9-0.1-1.3-0.2c-0.4-0.1-0.7-0.2-1-0.4l0.2-1.4l0.6,0.1l0,0.9c0.2,0.1,0.5,0.2,0.7,0.2
			c0.2,0,0.5,0.1,0.7,0.1c0.2,0,0.5,0,0.7-0.1c0.2,0,0.4-0.1,0.5-0.2c0.2-0.1,0.3-0.2,0.4-0.4c0.1-0.2,0.1-0.4,0.1-0.6
			c0-0.3,0-0.5-0.2-0.7c-0.1-0.2-0.2-0.3-0.4-0.4c-0.2-0.1-0.4-0.2-0.6-0.2c-0.2-0.1-0.4-0.1-0.6-0.2c-0.3-0.1-0.5-0.1-0.8-0.2
			c-0.2-0.1-0.5-0.2-0.7-0.3c-0.2-0.1-0.4-0.3-0.5-0.5c-0.1-0.2-0.2-0.5-0.2-0.8c0-0.3,0.1-0.6,0.2-0.9c0.1-0.2,0.3-0.4,0.5-0.6
			c0.2-0.2,0.4-0.3,0.7-0.4c0.3-0.1,0.6-0.1,0.9-0.1c0.2,0,0.4,0,0.6,0c0.2,0,0.4,0.1,0.6,0.1s0.4,0.1,0.5,0.2
			c0.2,0.1,0.3,0.2,0.4,0.2l0.1,1.4l-0.7,0.1l-0.1-1.1c-0.2-0.1-0.5-0.2-0.7-0.2c-0.2,0-0.5-0.1-0.7-0.1c-0.4,0-0.8,0.1-1.1,0.3
			s-0.4,0.5-0.4,0.9c0,0.2,0,0.4,0.1,0.5c0.1,0.1,0.2,0.3,0.4,0.4c0.1,0.1,0.3,0.2,0.5,0.2s0.4,0.1,0.6,0.1c0.2,0.1,0.5,0.1,0.8,0.2
			c0.3,0.1,0.5,0.2,0.8,0.3c0.2,0.1,0.4,0.3,0.6,0.6C108.6,57.5,108.7,57.8,108.7,58.2z"/>
		<path id="XMLID_96_" class="st0" d="M109.6,60.2v-0.7h0.9v-5.7h-0.9v-0.7h2.6v0.7h-0.9v5.7h0.9v0.7H109.6z"/>
		<path id="XMLID_93_" class="st0" d="M119.8,56.6c0,0.5-0.1,1-0.2,1.4c-0.2,0.4-0.4,0.8-0.7,1.1c-0.3,0.3-0.7,0.6-1.1,0.7
			c-0.4,0.2-0.9,0.3-1.5,0.3h-3.2v-0.7h0.9v-5.7h-0.9v-0.7h3.2c0.6,0,1.1,0.1,1.5,0.3c0.4,0.2,0.8,0.4,1.1,0.7
			c0.3,0.3,0.5,0.7,0.7,1.1C119.8,55.7,119.8,56.1,119.8,56.6z M119,56.7c0-0.4-0.1-0.8-0.2-1.2c-0.1-0.3-0.3-0.6-0.5-0.9
			c-0.2-0.2-0.5-0.4-0.9-0.6c-0.3-0.1-0.7-0.2-1.2-0.2h-1.5v5.7h1.5c0.9,0,1.6-0.3,2.1-0.8C118.8,58.2,119,57.5,119,56.7z"/>
		<path id="XMLID_90_" class="st0" d="M124.5,60.2v-0.7h0.9l-0.5-1.4h-3l-0.5,1.4h1v0.7H120v-0.7h0.7l2.3-5.7h-1.1v-0.7h2l2.5,6.4
			h0.7v0.7H124.5z M123.5,54.3L123.5,54.3l-1.3,3.2h2.5L123.5,54.3z"/>
		<path id="XMLID_87_" class="st0" d="M134.2,56.6c0,0.5-0.1,1-0.2,1.4s-0.4,0.8-0.7,1.1c-0.3,0.3-0.7,0.6-1.1,0.7
			c-0.4,0.2-0.9,0.3-1.5,0.3h-3.2v-0.7h0.9v-5.7h-0.9v-0.7h3.2c0.6,0,1.1,0.1,1.5,0.3c0.4,0.2,0.8,0.4,1.1,0.7
			c0.3,0.3,0.5,0.7,0.7,1.1C134.1,55.7,134.2,56.1,134.2,56.6z M133.3,56.7c0-0.4-0.1-0.8-0.2-1.2c-0.1-0.3-0.3-0.6-0.5-0.9
			c-0.2-0.2-0.5-0.4-0.9-0.6c-0.3-0.1-0.7-0.2-1.2-0.2h-1.5v5.7h1.5c0.9,0,1.6-0.3,2.1-0.8C133.1,58.2,133.3,57.5,133.3,56.7z"/>
		<path id="XMLID_85_" class="st0" d="M134.9,60.2v-0.7h0.9v-5.7h-0.9v-0.7h5.2l0.2,2l-0.7,0.1l-0.2-1.4h-2.8v2.4h3.3v0.7h-3.3v2.5
			h2.9l0.2-1.4l0.7,0.1l-0.2,2H134.9z"/>
		<path id="XMLID_83_" class="st0" d="M148.9,55.3l-0.2-1.5h-1.8v5.7h1.2v0.7h-3.3v-0.7h1.2v-5.7h-1.8l-0.2,1.5l-0.7-0.1l0.2-2.1
			h5.8l0.2,2.1L148.9,55.3z"/>
		<path id="XMLID_81_" class="st0" d="M150.3,60.2v-0.7h0.9v-5.7h-0.9v-0.7h5.2l0.2,2l-0.7,0.1l-0.2-1.4H152v2.4h3.3v0.7H152v2.5
			h2.9l0.2-1.4l0.7,0.1l-0.2,2H150.3z"/>
		<path id="XMLID_79_" class="st0" d="M160.1,60.3c-0.5,0-1-0.1-1.4-0.3c-0.4-0.2-0.8-0.4-1.1-0.8c-0.3-0.3-0.5-0.7-0.7-1.1
			c-0.2-0.4-0.2-0.9-0.2-1.4c0-0.5,0.1-0.9,0.2-1.4c0.2-0.4,0.4-0.8,0.7-1.2c0.3-0.3,0.6-0.6,1.1-0.8c0.4-0.2,0.9-0.3,1.4-0.3
			c0.6,0,1.1,0.1,1.5,0.2c0.4,0.2,0.7,0.3,1,0.6l0.2,1.4l-0.7,0.1l-0.2-1c-0.2-0.2-0.5-0.3-0.7-0.4c-0.3-0.1-0.6-0.1-1-0.1
			c-0.4,0-0.7,0.1-1.1,0.2c-0.3,0.1-0.6,0.3-0.8,0.6c-0.2,0.3-0.4,0.6-0.5,0.9c-0.1,0.4-0.2,0.8-0.2,1.2c0,0.4,0.1,0.8,0.2,1.2
			c0.1,0.4,0.3,0.7,0.5,0.9c0.2,0.3,0.5,0.5,0.9,0.6c0.3,0.1,0.7,0.2,1.1,0.2c0.3,0,0.6,0,0.8-0.1c0.2,0,0.5-0.1,0.7-0.2l0.2-1
			l0.7,0.1l-0.2,1.4C161.9,60.1,161.1,60.3,160.1,60.3z"/>
		<path id="XMLID_77_" class="st0" d="M170,53.8v6.4h-0.5l-4.1-5.6h0v4.9h1.1v0.7h-2.7v-0.7h0.8v-5.7h-0.9v-0.7h1.5l4,5.4h0v-4.7
			h-1.1v-0.7h2.7v0.7H170z"/>
		<path id="XMLID_74_" class="st0" d="M178.6,56.7c0,0.5-0.1,1-0.3,1.4c-0.2,0.4-0.4,0.8-0.7,1.2c-0.3,0.3-0.7,0.6-1.1,0.8
			c-0.4,0.2-0.9,0.3-1.4,0.3c-0.5,0-1-0.1-1.4-0.3c-0.4-0.2-0.8-0.5-1.1-0.8c-0.3-0.3-0.5-0.7-0.7-1.2c-0.2-0.4-0.2-0.9-0.2-1.4
			c0-0.5,0.1-1,0.3-1.4c0.2-0.4,0.4-0.8,0.7-1.2c0.3-0.3,0.7-0.6,1.1-0.8c0.4-0.2,0.9-0.3,1.4-0.3c0.5,0,1,0.1,1.4,0.3
			c0.4,0.2,0.8,0.5,1.1,0.8c0.3,0.3,0.6,0.7,0.7,1.2C178.5,55.7,178.6,56.2,178.6,56.7z M177.7,56.7c0-0.4-0.1-0.8-0.2-1.2
			c-0.1-0.4-0.3-0.7-0.5-0.9c-0.2-0.3-0.5-0.5-0.8-0.6c-0.3-0.1-0.7-0.2-1.1-0.2c-0.4,0-0.8,0.1-1.1,0.2c-0.3,0.2-0.6,0.4-0.8,0.6
			c-0.2,0.3-0.4,0.6-0.5,0.9c-0.1,0.4-0.2,0.7-0.2,1.1c0,0.4,0.1,0.8,0.2,1.1c0.1,0.4,0.3,0.7,0.5,0.9c0.2,0.3,0.5,0.5,0.8,0.6
			c0.3,0.2,0.7,0.2,1.1,0.2c0.4,0,0.8-0.1,1.1-0.2c0.3-0.1,0.6-0.4,0.8-0.6c0.2-0.3,0.4-0.6,0.5-0.9
			C177.7,57.5,177.7,57.1,177.7,56.7z"/>
		<path id="XMLID_72_" class="st0" d="M179.3,60.2v-0.7h0.9v-5.7h-0.9v-0.7h2.9v0.7H181v5.7h2.7l0.2-1.6l0.7,0.1l-0.2,2.3H179.3z"/>
		<path id="XMLID_68_" class="st0" d="M192.3,56.7c0,0.5-0.1,1-0.3,1.4c-0.2,0.4-0.4,0.8-0.7,1.2c-0.3,0.3-0.7,0.6-1.1,0.8
			c-0.4,0.2-0.9,0.3-1.4,0.3c-0.5,0-1-0.1-1.4-0.3c-0.4-0.2-0.8-0.5-1.1-0.8c-0.3-0.3-0.5-0.7-0.7-1.2c-0.2-0.4-0.2-0.9-0.2-1.4
			c0-0.5,0.1-1,0.3-1.4c0.2-0.4,0.4-0.8,0.7-1.2c0.3-0.3,0.7-0.6,1.1-0.8c0.4-0.2,0.9-0.3,1.4-0.3c0.5,0,1,0.1,1.4,0.3
			c0.4,0.2,0.8,0.5,1.1,0.8c0.3,0.3,0.6,0.7,0.7,1.2C192.2,55.7,192.3,56.2,192.3,56.7z M191.4,56.7c0-0.4-0.1-0.8-0.2-1.2
			c-0.1-0.4-0.3-0.7-0.5-0.9c-0.2-0.3-0.5-0.5-0.8-0.6c-0.3-0.1-0.7-0.2-1.1-0.2c-0.4,0-0.8,0.1-1.1,0.2c-0.3,0.2-0.6,0.4-0.8,0.6
			c-0.2,0.3-0.4,0.6-0.5,0.9c-0.1,0.4-0.2,0.7-0.2,1.1c0,0.4,0.1,0.8,0.2,1.1c0.1,0.4,0.3,0.7,0.5,0.9c0.2,0.3,0.5,0.5,0.8,0.6
			c0.3,0.2,0.7,0.2,1.1,0.2c0.4,0,0.8-0.1,1.1-0.2c0.3-0.1,0.6-0.4,0.8-0.6c0.2-0.3,0.4-0.6,0.5-0.9
			C191.3,57.5,191.4,57.1,191.4,56.7z M188.3,52.6l-0.1-0.4l2.1-0.8l0.2,0.7L188.3,52.6z"/>
		<path id="XMLID_66_" class="st0" d="M199.3,57.3v2.9h-0.6l-0.1-1c-0.2,0.3-0.5,0.6-0.9,0.8c-0.4,0.2-0.8,0.3-1.4,0.3
			c-0.5,0-0.9-0.1-1.3-0.3c-0.4-0.2-0.7-0.4-1-0.8c-0.3-0.3-0.5-0.7-0.7-1.1c-0.2-0.4-0.2-0.9-0.2-1.4c0-0.5,0.1-1,0.2-1.4
			c0.2-0.4,0.4-0.8,0.7-1.2c0.3-0.3,0.7-0.6,1.1-0.8c0.4-0.2,0.9-0.3,1.4-0.3c0.6,0,1.1,0.1,1.5,0.2c0.4,0.2,0.8,0.4,1,0.6l0.2,1.3
			l-0.7,0.1l-0.2-1c-0.2-0.1-0.4-0.2-0.7-0.4c-0.3-0.1-0.6-0.2-1.1-0.2c-0.4,0-0.8,0.1-1.1,0.2c-0.3,0.1-0.6,0.3-0.8,0.6
			c-0.2,0.3-0.4,0.6-0.5,0.9c-0.1,0.4-0.2,0.8-0.2,1.2c0,0.4,0.1,0.8,0.2,1.2c0.1,0.4,0.3,0.7,0.5,0.9c0.2,0.3,0.5,0.5,0.8,0.6
			c0.3,0.1,0.7,0.2,1,0.2c0.3,0,0.6,0,0.9-0.1c0.3-0.1,0.5-0.2,0.6-0.4c0.2-0.2,0.3-0.3,0.4-0.5c0.1-0.2,0.1-0.4,0.1-0.6v-0.6h-1.7
			v-0.7h3v0.7H199.3z"/>
		<path id="XMLID_64_" class="st0" d="M200.6,60.2v-0.7h0.9v-5.7h-0.9v-0.7h2.6v0.7h-0.9v5.7h0.9v0.7H200.6z"/>
		<path id="XMLID_62_" class="st0" d="M207.4,60.3c-0.5,0-1-0.1-1.4-0.3c-0.4-0.2-0.8-0.4-1.1-0.8c-0.3-0.3-0.5-0.7-0.7-1.1
			c-0.2-0.4-0.2-0.9-0.2-1.4c0-0.5,0.1-0.9,0.2-1.4c0.2-0.4,0.4-0.8,0.7-1.2c0.3-0.3,0.6-0.6,1.1-0.8c0.4-0.2,0.9-0.3,1.4-0.3
			c0.6,0,1.1,0.1,1.5,0.2c0.4,0.2,0.7,0.3,1,0.6l0.2,1.4l-0.7,0.1l-0.2-1c-0.2-0.2-0.5-0.3-0.7-0.4c-0.3-0.1-0.6-0.1-1-0.1
			c-0.4,0-0.7,0.1-1.1,0.2c-0.3,0.1-0.6,0.3-0.8,0.6c-0.2,0.3-0.4,0.6-0.5,0.9c-0.1,0.4-0.2,0.8-0.2,1.2c0,0.4,0.1,0.8,0.2,1.2
			c0.1,0.4,0.3,0.7,0.5,0.9c0.2,0.3,0.5,0.5,0.9,0.6c0.3,0.1,0.7,0.2,1.1,0.2c0.3,0,0.6,0,0.8-0.1c0.2,0,0.5-0.1,0.7-0.2l0.2-1
			l0.7,0.1l-0.2,1.4C209.2,60.1,208.4,60.3,207.4,60.3z"/>
		<path id="XMLID_59_" class="st0" d="M215.1,60.2v-0.7h0.9l-0.5-1.4h-3l-0.5,1.4h1v0.7h-2.5v-0.7h0.7l2.3-5.7h-1.1v-0.7h2l2.5,6.4
			h0.7v0.7H215.1z M214.1,54.3L214.1,54.3l-1.3,3.2h2.5L214.1,54.3z"/>
		<path id="XMLID_57_" class="st0" d="M69.1,66.5l-0.2-1.4h-2.7v2.7h3.2v0.7h-3.2v2.2h1.2v0.7h-2.9v-0.7h0.9v-5.7h-0.9v-0.7h5.1
			l0.2,2L69.1,66.5z"/>
		<path id="XMLID_55_" class="st0" d="M70.5,71.4v-0.7h0.9v-5.7h-0.9v-0.7h5.1l0.2,2l-0.7,0.1l-0.2-1.4h-2.8v2.4h3.3v0.7h-3.3v2.5
			H75l0.2-1.4l0.7,0.1l-0.2,2H70.5z"/>
		<path id="XMLID_52_" class="st0" d="M83.6,67.9c0,0.5-0.1,1-0.2,1.4c-0.2,0.4-0.4,0.8-0.7,1.1c-0.3,0.3-0.7,0.6-1.1,0.7
			c-0.4,0.2-0.9,0.3-1.5,0.3h-3.2v-0.7h0.9v-5.7h-0.9v-0.7H80c0.6,0,1.1,0.1,1.5,0.3c0.4,0.2,0.8,0.4,1.1,0.7
			c0.3,0.3,0.5,0.7,0.7,1.1C83.5,66.9,83.6,67.4,83.6,67.9z M82.8,67.9c0-0.4-0.1-0.8-0.2-1.2c-0.1-0.3-0.3-0.6-0.5-0.9
			c-0.2-0.2-0.5-0.4-0.9-0.6c-0.3-0.1-0.7-0.2-1.2-0.2h-1.5v5.7H80c0.9,0,1.6-0.3,2.1-0.8C82.5,69.5,82.8,68.8,82.8,67.9z"/>
		<path id="XMLID_50_" class="st0" d="M84.4,71.4v-0.7h0.9v-5.7h-0.9v-0.7h5.2l0.2,2L89,66.4l-0.2-1.4h-2.8v2.4h3.3v0.7h-3.3v2.5
			h2.9l0.2-1.4l0.7,0.1l-0.2,2H84.4z"/>
		<path id="XMLID_47_" class="st0" d="M95.5,71.4L94,68.5h-1.5v2.3h0.9v0.7h-2.6v-0.7h0.9v-5.7h-0.9v-0.7h3c0.4,0,0.8,0.1,1.1,0.2
			c0.3,0.1,0.6,0.2,0.8,0.4c0.2,0.2,0.3,0.4,0.4,0.6c0.1,0.2,0.1,0.5,0.1,0.8c0,0.5-0.1,0.9-0.4,1.2c-0.3,0.4-0.6,0.6-1.1,0.7
			l1.3,2.4h0.9v0.7H95.5z M95.4,66.4c0-0.5-0.1-0.8-0.4-1c-0.3-0.2-0.7-0.3-1.3-0.3h-1.3v2.7h1.3c0.6,0,1-0.1,1.3-0.4
			C95.3,67.2,95.4,66.8,95.4,66.4z"/>
		<path id="XMLID_44_" class="st0" d="M101.6,71.4v-0.7h0.9l-0.5-1.4h-3l-0.5,1.4h1v0.7H97v-0.7h0.7l2.3-5.7h-1.1v-0.7h2l2.5,6.4
			h0.7v0.7H101.6z M100.6,65.5L100.6,65.5l-1.3,3.2h2.5L100.6,65.5z"/>
		<path id="XMLID_42_" class="st0" d="M104.5,71.4v-0.7h0.9v-5.7h-0.9v-0.7h2.9v0.7h-1.2v5.7h2.7l0.2-1.6l0.7,0.1l-0.2,2.3H104.5z"
			/>
		<path id="XMLID_39_" class="st0" d="M119.3,67.9c0,0.5-0.1,1-0.2,1.4c-0.2,0.4-0.4,0.8-0.7,1.1c-0.3,0.3-0.7,0.6-1.1,0.7
			c-0.4,0.2-0.9,0.3-1.5,0.3h-3.2v-0.7h0.9v-5.7h-0.9v-0.7h3.2c0.6,0,1.1,0.1,1.5,0.3c0.4,0.2,0.8,0.4,1.1,0.7
			c0.3,0.3,0.5,0.7,0.7,1.1C119.3,66.9,119.3,67.4,119.3,67.9z M118.5,67.9c0-0.4-0.1-0.8-0.2-1.2c-0.1-0.3-0.3-0.6-0.5-0.9
			c-0.2-0.2-0.5-0.4-0.9-0.6c-0.3-0.1-0.7-0.2-1.2-0.2h-1.5v5.7h1.5c0.9,0,1.6-0.3,2.1-0.8C118.3,69.5,118.5,68.8,118.5,67.9z"/>
		<path id="XMLID_36_" class="st0" d="M127.2,67.9c0,0.5-0.1,1-0.3,1.4c-0.2,0.4-0.4,0.8-0.7,1.2c-0.3,0.3-0.7,0.6-1.1,0.8
			c-0.4,0.2-0.9,0.3-1.4,0.3c-0.5,0-1-0.1-1.4-0.3c-0.4-0.2-0.8-0.5-1.1-0.8c-0.3-0.3-0.5-0.7-0.7-1.2c-0.2-0.4-0.2-0.9-0.2-1.4
			c0-0.5,0.1-1,0.3-1.4c0.2-0.4,0.4-0.8,0.7-1.2c0.3-0.3,0.7-0.6,1.1-0.8c0.4-0.2,0.9-0.3,1.4-0.3c0.5,0,1,0.1,1.4,0.3
			c0.4,0.2,0.8,0.5,1.1,0.8c0.3,0.3,0.6,0.7,0.7,1.2C127.2,66.9,127.2,67.4,127.2,67.9z M126.4,67.9c0-0.4-0.1-0.8-0.2-1.2
			c-0.1-0.4-0.3-0.7-0.5-0.9c-0.2-0.3-0.5-0.5-0.8-0.6c-0.3-0.1-0.7-0.2-1.1-0.2c-0.4,0-0.8,0.1-1.1,0.2c-0.3,0.2-0.6,0.4-0.8,0.6
			c-0.2,0.3-0.4,0.6-0.5,0.9c-0.1,0.4-0.2,0.7-0.2,1.1c0,0.4,0.1,0.8,0.2,1.1c0.1,0.4,0.3,0.7,0.5,0.9c0.2,0.3,0.5,0.5,0.8,0.6
			c0.3,0.2,0.7,0.2,1.1,0.2c0.4,0,0.8-0.1,1.1-0.2c0.3-0.1,0.6-0.4,0.8-0.6c0.2-0.3,0.4-0.6,0.5-0.9
			C126.3,68.7,126.4,68.3,126.4,67.9z"/>
		<path id="XMLID_33_" class="st0" d="M136,66.5c0,0.4-0.1,0.7-0.2,1c-0.1,0.3-0.3,0.5-0.5,0.7c-0.2,0.2-0.5,0.3-0.8,0.4
			c-0.3,0.1-0.6,0.1-1,0.1h-1.4v1.9h1.2v0.7h-2.9v-0.7h0.9v-5.7h-0.9v-0.7h3c0.4,0,0.8,0.1,1.1,0.2c0.3,0.1,0.6,0.3,0.8,0.5
			c0.2,0.2,0.3,0.4,0.4,0.7C136,66,136,66.2,136,66.5z M135.2,66.6c0-0.5-0.1-0.8-0.4-1.1c-0.3-0.3-0.7-0.4-1.3-0.4h-1.2v3h1.3
			c0.5,0,0.9-0.1,1.2-0.4C135,67.4,135.2,67.1,135.2,66.6z"/>
		<path id="XMLID_30_" class="st0" d="M140.4,71.4v-0.7h0.9l-0.5-1.4h-3l-0.5,1.4h1v0.7h-2.5v-0.7h0.7l2.3-5.7h-1.1v-0.7h2l2.5,6.4
			h0.7v0.7H140.4z M139.4,65.5L139.4,65.5l-1.3,3.2h2.5L139.4,65.5z"/>
		<path id="XMLID_27_" class="st0" d="M148,71.4l-1.5-2.9H145v2.3h0.9v0.7h-2.6v-0.7h0.9v-5.7h-0.9v-0.7h3c0.4,0,0.8,0.1,1.1,0.2
			c0.3,0.1,0.6,0.2,0.8,0.4c0.2,0.2,0.3,0.4,0.4,0.6c0.1,0.2,0.1,0.5,0.1,0.8c0,0.5-0.1,0.9-0.4,1.2c-0.3,0.4-0.6,0.6-1.1,0.7
			l1.3,2.4h0.9v0.7H148z M147.9,66.4c0-0.5-0.1-0.8-0.4-1c-0.3-0.2-0.7-0.3-1.3-0.3H145v2.7h1.3c0.6,0,1-0.1,1.3-0.4
			C147.8,67.2,147.9,66.8,147.9,66.4z"/>
		<path id="XMLID_24_" class="st0" d="M154.1,71.4v-0.7h0.9l-0.5-1.4h-3l-0.5,1.4h1v0.7h-2.5v-0.7h0.7l2.3-5.7h-1.1v-0.7h2l2.5,6.4
			h0.7v0.7H154.1z M153.1,65.5L153.1,65.5l-1.3,3.2h2.5L153.1,65.5z"/>
		<path id="XMLID_22_" class="st0" d="M163.3,65.1v6.4h-0.5l-4.1-5.6h0v4.9h1.1v0.7h-2.7v-0.7h0.8v-5.7H157v-0.7h1.5l4,5.4h0v-4.7
			h-1.1v-0.7h2.7v0.7H163.3z"/>
		<path id="XMLID_18_" class="st0" d="M168.9,71.4v-0.7h0.9l-0.5-1.4h-3l-0.5,1.4h1v0.7h-2.5v-0.7h0.7l2.3-5.7h-1.1v-0.7h2l2.5,6.4
			h0.7v0.7H168.9z M167.9,65.5L167.9,65.5l-1.3,3.2h2.5L167.9,65.5z M167.4,63.8l-0.1-0.4l2.1-0.8l0.2,0.7L167.4,63.8z"/>
	</g>
	<path id="XMLID_14_" class="st0" d="M26.1,26.3h-3.2c1,0.5,1.8,1.2,2.5,2.1c0.7,0.9,1,2.2,1,3.7c0,2.3-0.8,4-2.3,5.3
		c-1.5,1.3-3.6,1.9-6.3,1.9c-1.3,0-2.5-0.2-3.6-0.5c-1.1-0.3-2.1-0.8-2.9-1.4c-0.8-0.6-1.5-1.4-2-2.4c-0.5-0.9-0.7-2.1-0.7-3.4
		c0-1.4,0.3-2.6,0.8-3.4c0.5-0.9,1.3-1.5,2.1-2H3.7v3.4H0v-8.3h22.4v-2.3h3.7V26.3z M17,26.3c-1.4,0-2.6,0.4-3.3,1.1
		c-0.8,0.7-1.2,1.7-1.2,2.8c0,0.5,0.1,1,0.3,1.5c0.2,0.5,0.5,0.9,0.9,1.3c0.4,0.4,0.9,0.7,1.6,0.9c0.6,0.2,1.4,0.3,2.3,0.3
		c1.6,0,2.9-0.4,3.8-1.1c0.9-0.7,1.3-1.6,1.3-2.7c0-0.6-0.2-1.2-0.5-1.7c-0.3-0.5-0.7-1-1.2-1.3c-0.5-0.4-1-0.6-1.7-0.8
		c-0.6-0.2-1.2-0.3-1.9-0.3H17z"/>
	<path id="XMLID_11_" class="st0" d="M10.2,16c-0.3-0.8-0.6-1.4-0.8-2c-0.2-0.6-0.4-1.2-0.5-1.7c-0.1-0.5-0.2-1.1-0.2-1.7
		c-0.1-0.6-0.1-1.2-0.1-1.9C8.6,7.8,8.8,7,9,6.1C9.2,5.3,9.6,4.6,10.1,4c0.5-0.6,1.1-1.1,1.8-1.5c0.7-0.4,1.6-0.5,2.6-0.5h7.4
		c0.5,0,0.9-0.1,1-0.3c0.2-0.2,0.3-0.5,0.3-0.9c0-0.2,0-0.4-0.1-0.7l2.6,0c0.3,0.5,0.4,0.9,0.6,1.5c0.1,0.5,0.2,1.1,0.2,1.6
		c0,1.1-0.3,2-0.9,2.6c-0.6,0.6-1.4,1-2.5,1.1h0c0.4,0.3,0.9,0.6,1.3,0.9c0.4,0.3,0.8,0.7,1.1,1.2c0.3,0.5,0.6,1,0.8,1.5
		c0.2,0.6,0.3,1.2,0.3,1.9c0,0.6-0.1,1.2-0.3,1.9c-0.2,0.6-0.5,1.2-0.9,1.7c-0.4,0.5-0.9,0.9-1.5,1.2c-0.6,0.3-1.4,0.5-2.3,0.5
		c-1.1,0-1.9-0.2-2.6-0.7c-0.7-0.5-1.2-1.1-1.6-1.8c-0.4-0.7-0.6-1.6-0.8-2.5c-0.2-0.9-0.2-1.9-0.2-2.9c0-0.5,0-1,0-1.4
		c0-0.5,0.1-0.9,0.1-1.4H16c-0.4,0-0.9,0-1.3,0.1c-0.5,0-0.9,0.1-1.2,0.3C13,7.4,12.7,7.7,12.5,8c-0.2,0.4-0.4,0.9-0.4,1.6
		c0,0.5,0,1,0.1,1.4c0.1,0.4,0.2,0.8,0.4,1.2l2.4,0.6l-0.4,3.9L10.2,16z M18.9,6.8c0,0.4-0.1,0.8-0.2,1.2c-0.1,0.4-0.1,0.8-0.1,1.2
		c0,0.4,0,0.8,0.1,1.2c0.1,0.4,0.2,0.7,0.4,1c0.2,0.3,0.4,0.5,0.7,0.7c0.3,0.2,0.7,0.3,1.1,0.3c0.6,0,1-0.2,1.4-0.5
		c0.4-0.3,0.6-0.8,0.6-1.6c0-0.9-0.3-1.7-0.9-2.4c-0.6-0.7-1.6-1.2-3-1.3H18.9z"/>
	<path id="XMLID_8_" class="st0" d="M31.2,32.8h3.2c-1-0.5-1.8-1.2-2.5-2.1c-0.7-0.9-1-2.2-1-3.7c0-2.3,0.8-4,2.3-5.3
		c1.5-1.3,3.6-1.9,6.3-1.9c1.3,0,2.5,0.2,3.6,0.5c1.1,0.3,2.1,0.8,2.9,1.4c0.8,0.6,1.5,1.4,2,2.4c0.5,0.9,0.7,2.1,0.7,3.4
		c0,1.4-0.3,2.6-0.8,3.4c-0.5,0.9-1.3,1.5-2.1,2h7.9v-3.4h3.7v8.3H34.9V40h-3.7V32.8z M40.3,32.8c1.4,0,2.6-0.4,3.3-1.1
		c0.8-0.7,1.2-1.7,1.2-2.8c0-0.5-0.1-1-0.3-1.5c-0.2-0.5-0.5-0.9-0.9-1.3c-0.4-0.4-0.9-0.7-1.6-0.9c-0.6-0.2-1.4-0.3-2.3-0.3
		c-1.6,0-2.9,0.4-3.8,1.1c-0.9,0.7-1.3,1.6-1.3,2.7c0,0.6,0.2,1.2,0.5,1.7c0.3,0.5,0.7,1,1.2,1.3c0.5,0.4,1,0.6,1.6,0.8
		c0.6,0.2,1.2,0.3,1.9,0.3H40.3z"/>
	<path id="XMLID_5_" class="st0" d="M31.2,41.7h3.7V44h9.7v-2.5h3.7v7.4H34.9v2.3h-3.7V41.7z M56.4,43.8v4.9h-5.1v-4.9H56.4z"/>
	<path id="XMLID_3_" class="st0" d="M31.2,64.4h3.7v2.3h6c1.5,0,2.5-0.2,3.2-0.7c0.6-0.5,0.9-1.2,0.9-2.2c0-1.2-0.4-2.1-1.1-2.7
		c-0.7-0.6-1.7-1-2.8-1h-6.1v2.3h-3.7v-9.4h3.7v2.3h9.7v-2.5h3.7v7.4h-2.6c0.9,0.5,1.7,1.3,2.2,2.2c0.5,0.9,0.8,2,0.8,3.3
		c0,0.8-0.1,1.6-0.4,2.3c-0.2,0.7-0.6,1.4-1.1,1.9c-0.5,0.6-1.1,1-1.8,1.3c-0.7,0.3-1.6,0.5-2.6,0.5h-7.9v2.3h-3.7V64.4z"/>
</g>
</svg>
